<svg xmlns="http://www.w3.org/2000/svg" aria-hidden="true" style="position:absolute;width:0;height:0;overflow:hidden">
  <defs>
    <symbol id="icon-Client-6" viewBox="0 0 61 32">
      <path fill="#8e8f99" d="M31.102 15.798c-.162-.215-.239-.469-.22-.724v-1.05c0-.322.073-.567.219-.734s.397-.251.753-.25c.334 0 .572.071.712.214.153.182.228.404.21.628v.247h-.598v-.25c.002-.082-.004-.164-.017-.245-.009-.055-.039-.107-.085-.145-.061-.042-.139-.062-.217-.057-.082-.005-.163.016-.228.06-.052.043-.087.099-.099.16-.017.086-.025.173-.024.26v1.275c-.009.123.017.246.077.358.03.038.071.068.119.087s.102.026.154.02c.077.005.153-.015.212-.058.049-.042.08-.096.089-.155.014-.085.02-.17.019-.255v-.259h.598v.236c.017.234-.056.466-.207.66-.137.156-.371.234-.716.234s-.604-.083-.752-.256zM33.591 15.808c-.151-.163-.227-.402-.227-.717v-1.105c0-.312.076-.548.227-.708s.404-.24.758-.239c.352 0 .603.08.754.239s.228.396.228.708v1.105c0 .312-.077.551-.23.716s-.404.247-.752.247-.605-.083-.758-.246zm1.037-.265c.054-.102.079-.215.072-.327v-1.353c.007-.11-.017-.22-.071-.321-.03-.039-.073-.069-.122-.088s-.104-.025-.158-.019c-.054-.006-.108 0-.158.019s-.092.049-.123.088c-.054.1-.079.21-.072.32v1.359c-.008.112.017.225.072.327.035.034.078.062.126.081s.101.029.154.029.105-.01.154-.029c.048-.019.091-.047.126-.081v-.006zM36.05 13.071h.644l.484 2.038.495-2.038h.627l.063 2.942H37.9l-.049-2.045-.478 2.045h-.371l-.495-2.052-.046 2.052h-.468l.058-2.942zM39.085 13.071h1.003c.578 0 .867.278.867.835 0 .533-.304.8-.912.799h-.342v1.308h-.619l.004-2.942zm.856 1.258c.061.007.123.002.182-.014s.113-.043.158-.079c.071-.099.103-.216.089-.332.003-.09-.007-.18-.029-.267-.009-.029-.024-.057-.046-.081s-.048-.044-.078-.059c-.086-.036-.181-.052-.276-.047h-.24v.879h.24zM41.847 13.071h.665l.682 2.942h-.577l-.135-.678h-.593l-.139.678h-.585l.682-2.942zm.568 1.923-.231-1.235-.232 1.235h.463zM43.745 13.071h.433l.829 1.678v-1.678h.514v2.942h-.412l-.835-1.752v1.752h-.531l.001-2.942zM46.725 14.892l-.689-1.816h.581l.421 1.167.395-1.167h.568l-.681 1.816v1.122h-.594v-1.122zM32.057 17.299v.154h-.505v1.195h-.212v-1.195h-.508v-.154h1.224zM33.641 18.649h-.163c-.017.001-.033-.004-.046-.013-.012-.008-.022-.019-.027-.031l-.146-.32h-.701l-.146.32c-.004.013-.012.026-.022.036-.013.009-.029.014-.046.013h-.163l.619-1.349h.215l.626 1.344zm-1.025-.501h.584l-.248-.549c-.018-.042-.034-.084-.046-.127-.009.026-.016.05-.023.072l-.022.057-.245.548zM34.708 18.516c.039.002.078.002.116 0 .033-.003.067-.008.099-.016.03-.006.06-.015.089-.025.027-.01.054-.021.083-.033v-.303h-.248c-.006 0-.012 0-.018-.002s-.011-.005-.015-.008-.007-.007-.009-.011-.003-.009-.003-.014V18h.48v.517c-.039.024-.081.046-.124.064s-.09.034-.137.046c-.051.013-.102.022-.155.028-.06.006-.12.009-.181.009-.107.001-.213-.016-.312-.05-.093-.032-.177-.08-.248-.141-.069-.062-.123-.134-.16-.214-.039-.089-.058-.184-.057-.28-.001-.096.018-.192.056-.282.036-.08.09-.153.16-.214s.155-.108.248-.14c.106-.034.219-.051.332-.05.058 0 .115.004.172.012.05.007.1.018.147.034.043.014.085.032.124.053.038.021.074.045.108.07l-.059.083c-.005.008-.012.014-.02.018s-.018.007-.028.007c-.014 0-.027-.004-.038-.011-.019-.009-.038-.019-.061-.032-.026-.014-.054-.026-.083-.036-.037-.013-.075-.023-.114-.03-.052-.008-.105-.012-.157-.012-.082-.001-.163.012-.239.037-.069.024-.131.06-.182.107-.051.049-.09.106-.115.168-.055.146-.055.304 0 .45.027.063.069.121.124.17.051.046.112.083.181.107.079.023.162.032.245.027zM36.681 18.495h.676v.154h-.883V17.3h.212l-.005 1.195zM38.061 18.649h-.212V17.3h.212v1.349zM38.848 17.306c.012.006.023.015.032.025l.905 1.017c-.001-.016-.001-.032 0-.048v-1.006h.184v1.355h-.107c-.016.001-.032-.002-.046-.008-.013-.007-.024-.015-.033-.026l-.904-1.016v1.05h-.177V17.3h.11c.012 0 .024.002.035.006zM41.529 17.299v.148h-.751v.445h.608v.143h-.608v.46h.751v.148h-.968v-1.346h.968zM19.344 8.967l9.401 2.303v8.071l-9.401-2.302V8.967zm-.603-.688v9.152l10.605 2.599v-9.151l-10.605-2.6z" style="fill:var(--color1, #8e8f99)"/>
      <path fill="#8e8f99" d="m24.425 24.279-10.607-2.601v-9.151l10.607 2.6v9.152zM18.917 8.863l9.278 2.274-3.946 3.406-9.279-2.276 3.947-3.405zm-.176-.584-4.923 4.248 10.607 2.6 4.921-4.248-10.605-2.6zM25.021 23.764l4.325-3.733-4.325-1.061v4.793z" style="fill:var(--color1, #8e8f99)"/>
    </symbol>
    <symbol id="icon-Client-5" viewBox="0 0 61 32">
      <path fill="#8e8f99" d="M21.379 21.954c.089.099.137.224.134.352.005.083-.012.167-.048.244s-.091.146-.16.201c-.173.118-.388.176-.605.162h-1.064v-2.23h1.042c.206-.012.41.04.577.148.067.051.121.115.156.187s.051.151.046.23c.006.123-.037.244-.121.341-.081.089-.193.15-.317.174.141.023.268.091.359.191zm-1.248-.337h.445c.101.007.202-.02.283-.074.033-.027.059-.061.076-.099s.023-.078.02-.119c.003-.04-.004-.081-.02-.119s-.042-.072-.074-.099c-.084-.056-.188-.083-.292-.075h-.438v.585zm.772.855c.036-.028.064-.063.082-.102s.026-.082.023-.124c.003-.043-.006-.086-.024-.126s-.047-.075-.083-.103c-.087-.058-.194-.087-.302-.081h-.467v.613h.473c.107.006.212-.022.299-.077zM23.509 22.912l-.58-.872h-.218v.872h-.499v-2.23h.944c.238-.015.473.053.657.19.132.121.212.28.224.45s-.042.337-.154.473c-.116.12-.276.2-.45.227l.617.891h-.542zm-.798-1.175h.408c.283 0 .425-.113.425-.338.003-.046-.005-.092-.023-.135s-.046-.082-.081-.115c-.09-.067-.205-.099-.321-.09h-.413l.005.679zM26.234 22.464h-.994l-.175.449h-.523l.912-2.205h.565l.909 2.205h-.523l-.172-.449zm-.133-.338-.363-.941-.363.941h.726zM29.645 22.913h-.495l-1.11-1.516v1.516h-.494v-2.23h.494l1.11 1.525v-1.525h.495v2.23zM32.469 22.379c-.102.168-.258.305-.448.393-.215.098-.454.146-.696.141h-.881v-2.23h.881c.241-.006.48.041.696.137.189.086.346.222.448.389.102.181.155.382.155.585s-.053.404-.155.585zm-.566-.054c.141-.148.219-.337.219-.532s-.078-.384-.219-.532c-.171-.134-.393-.202-.62-.19h-.344v1.443h.344c.226.013.449-.055.62-.19zM26.543 8.279s6.388 2.171 6.252 5.313v5.314s-6.383-2.172-6.25-5.314l-.002-5.313zM38.487 17.662c1.207-.747 2.602-1.21 4.059-1.346v-1.663c-1.679.582-3.102 1.638-4.059 3.01z" style="fill:var(--color1, #8e8f99)"/>
      <path fill="#8e8f99" d="M37.762 18.163c.987-1.79 2.699-3.171 4.783-3.86V9.51s-9.097 3.093-8.905 7.567v7.566s.405-.138 1.043-.398c0-.242 0-.486.029-.731.188-2.077 1.285-4.002 3.05-5.351z" style="fill:var(--color1, #8e8f99)"/>
      <path fill="#8e8f99" d="M36.897 20.973c.048-.525.155-1.044.319-1.549-1.099 1.165-1.764 2.611-1.902 4.134-.013.144-.021.288-.024.436.517-.223 1.118-.502 1.75-.83-.161-.721-.209-1.458-.142-2.191zM37.259 21.001c-.06.663-.023 1.33.113 1.984 2.485-1.339 5.278-3.408 5.171-5.908v-.218c-1.776.179-3.437.878-4.729 1.989-.302.689-.489 1.414-.554 2.153z" style="fill:var(--color1, #8e8f99)"/>
    </symbol>
    <symbol id="icon-Client-4" viewBox="0 0 61 32">
      <path fill="#8e8f99" d="M20.392 13.643h-.001c-.867 0-1.571.634-1.571 1.416v.001c0 .782.703 1.416 1.571 1.416h.001c.867 0 1.571-.634 1.571-1.416v-.001c0-.782-.703-1.416-1.571-1.416zM31.986 13.19c-.002-1.086-.482-2.128-1.334-2.896s-2.007-1.201-3.212-1.203c-1.205.002-2.361.434-3.213 1.203s-1.332 1.81-1.335 2.896v5.991s9.092-.913 9.093-5.99v-.001zM15.636 21.147c.002.756.336 1.48.929 2.015s1.396.836 2.234.838c.838-.002 1.641-.303 2.234-.838s.927-1.259.929-2.014V16.98s-6.327.636-6.327 4.167zm3.164.747c-.164 0-.324-.044-.46-.126s-.242-.199-.305-.335-.079-.287-.047-.432c.032-.145.111-.278.227-.382s.263-.176.424-.204c.161-.029.327-.014.479.043s.281.152.372.275c.091.123.14.267.14.415 0 .098-.021.196-.062.287s-.102.174-.179.243c-.077.07-.168.125-.269.163s-.209.057-.318.057v-.003zM24.585 20.551v1.551h-.32v-1.551h.32zm.618.663v.249h-.705v-.249h.705zm.075-.663v.25h-.78v-.25h.78zm1.459.739v.074c0 .118-.016.224-.048.317s-.077.174-.135.24c-.058.065-.128.115-.209.15s-.169.052-.267.052c-.097 0-.186-.017-.267-.052s-.15-.085-.209-.15c-.059-.066-.105-.146-.137-.24s-.048-.2-.048-.317v-.074c0-.119.016-.224.048-.317s.077-.174.135-.24c.059-.066.129-.116.209-.151s.17-.052.267-.052c.098 0 .187.017.267.052s.151.085.209.151c.059.066.104.146.136.24s.049.199.049.317zm-.323.074v-.076c0-.082-.007-.155-.022-.217s-.037-.115-.066-.158-.065-.075-.107-.096c-.042-.022-.09-.033-.144-.033s-.102.011-.144.033c-.041.021-.076.053-.105.096s-.05.095-.065.158-.022.135-.022.217v.076c0 .082.007.154.022.217s.037.115.066.159c.029.043.065.075.107.097s.09.033.144.033c.054 0 .102-.011.144-.033s.077-.054.105-.097c.028-.043.05-.096.065-.159s.022-.136.022-.217zm1.361.332c0-.028-.004-.053-.013-.075s-.023-.043-.045-.062c-.022-.019-.053-.038-.093-.056s-.091-.038-.154-.058c-.07-.023-.137-.048-.2-.077s-.118-.061-.166-.099c-.048-.038-.085-.083-.113-.133s-.04-.109-.04-.176c0-.065.014-.123.043-.176s.068-.099.119-.136c.051-.038.111-.068.181-.088s.147-.031.231-.031c.114 0 .214.021.299.062s.151.098.198.169c.048.072.071.154.071.246h-.317c0-.045-.01-.085-.029-.119s-.047-.062-.085-.082c-.038-.02-.085-.03-.143-.03-.055 0-.102.009-.138.026s-.065.039-.083.067c-.018.028-.028.059-.028.094 0 .026.006.05.019.071s.033.041.06.06.059.036.097.052c.038.016.083.032.133.048.084.026.159.054.223.086s.119.068.162.108c.043.04.076.085.098.135s.033.108.033.172c0 .067-.013.128-.039.181s-.064.098-.114.135c-.05.037-.109.065-.178.084s-.146.029-.231.029c-.077 0-.152-.01-.227-.03s-.142-.052-.203-.093c-.06-.041-.109-.094-.145-.158s-.054-.14-.054-.227h.321c0 .048.007.089.022.122s.036.06.063.081c.028.021.06.035.098.045s.08.014.126.014c.055 0 .101-.008.136-.023s.063-.037.08-.065c.018-.028.027-.059.027-.094zm1.23-1.145v1.551h-.319v-1.551h.319zm.477 0v.25h-1.266v-.25h1.266zm1.223 1.302v.249h-.826v-.249h.826zm-.721-1.302v1.551h-.32v-1.551h.32zm.614.632v.243h-.718v-.243h.718zm.106-.632v.25h-.825v-.25h.825zm.188 0h.578c.119 0 .221.018.306.053s.152.088.198.158.069.155.069.257c0 .083-.014.154-.043.214s-.067.108-.118.148c-.05.039-.11.07-.178.094l-.101.053H31.1l-.002-.249h.374c.056 0 .103-.01.14-.03s.065-.048.083-.083c.019-.035.029-.077.029-.124 0-.05-.009-.093-.028-.129s-.047-.064-.084-.083-.085-.029-.142-.029h-.259v1.301h-.32v-1.551zm.867 1.551-.354-.691.338-.002.358.679v.015h-.342zm1.678-.553h-.395V21.3h.395c.061 0 .111-.01.149-.03s.066-.049.084-.085c.018-.036.027-.077.027-.122s-.009-.089-.027-.129c-.018-.04-.046-.072-.084-.096s-.088-.036-.149-.036h-.284v1.301h-.32v-1.551h.604c.121 0 .225.022.312.066s.154.103.2.18c.046.077.069.164.069.263 0 .1-.023.187-.069.26s-.113.13-.2.169c-.087.04-.191.06-.312.06zm1.843.304v.249h-.826v-.249h.826zm-.721-1.302v1.551h-.32v-1.551h.32zm.613.632v.243h-.718v-.243h.718zm.107-.632v.25h-.825v-.25h.825zm.902 0v1.551h-.319v-1.551h.319zm.478 0v.25h-1.266v-.25h1.266zm1.222 1.302v.249h-.825v-.249h.825zm-.721-1.302v1.551h-.32v-1.551h.32zm.614.632v.243h-.718v-.243h.718zm.106-.632v.25h-.824v-.25h.824zm.188 0h.579c.119 0 .22.018.306.053s.152.088.198.158.069.155.069.257c0 .083-.014.154-.043.214s-.067.108-.118.148c-.051.039-.11.07-.178.094l-.101.053h-.503l-.002-.249h.374c.056 0 .103-.01.139-.03s.065-.048.083-.083c.019-.035.029-.077.029-.124 0-.05-.009-.093-.028-.129s-.047-.064-.084-.083c-.037-.019-.085-.029-.141-.029h-.259v1.301h-.32v-1.551zm.867 1.551-.354-.691.338-.002.358.679v.015h-.342zm1.338-.406c0-.028-.004-.053-.013-.075-.008-.023-.023-.043-.045-.062s-.053-.038-.093-.056c-.04-.018-.091-.038-.154-.058-.071-.023-.137-.048-.2-.077s-.118-.061-.166-.099c-.048-.038-.085-.083-.113-.133s-.04-.109-.04-.176c0-.065.014-.123.043-.176s.068-.099.119-.136c.051-.038.112-.068.181-.088.071-.021.148-.031.231-.031.114 0 .214.021.299.062s.151.098.198.169c.048.072.071.154.071.246h-.317c0-.045-.009-.085-.029-.119-.018-.035-.047-.062-.085-.082s-.085-.03-.143-.03c-.055 0-.101.009-.139.026s-.064.039-.083.067c-.019.028-.028.059-.028.094 0 .026.006.05.019.071s.033.041.06.06c.026.018.059.036.097.052s.083.032.133.048c.085.026.159.054.223.086s.119.068.162.108.076.085.098.135c.022.05.033.108.033.172 0 .067-.013.128-.039.181s-.064.098-.114.135c-.049.037-.109.065-.178.084s-.146.029-.231.029c-.076 0-.152-.01-.227-.03s-.142-.052-.203-.093c-.06-.041-.109-.094-.145-.158s-.054-.14-.054-.227h.321c0 .048.007.089.022.122s.036.06.063.081c.028.021.06.035.098.045s.08.014.125.014c.056 0 .101-.008.136-.023.036-.016.063-.037.08-.065s.027-.059.027-.094z" style="fill:var(--color1, #8e8f99)"/>
    </symbol>
    <symbol id="icon-Client-3" viewBox="0 0 61 32">
      <path fill="#8e8f99" d="M25.022 23.718c.006 0 .012.001.017.003s.01.005.014.009l.08.076c-.062.061-.139.11-.226.143-.101.036-.21.054-.32.051-.103.002-.206-.015-.301-.048-.086-.031-.163-.077-.227-.136-.065-.061-.114-.132-.147-.209-.035-.086-.052-.177-.051-.268-.001-.092.017-.183.055-.269.035-.078.088-.149.156-.209.069-.059.151-.105.241-.136.099-.033.204-.049.31-.048.098-.002.196.013.288.044.079.029.152.07.216.121l-.067.081c-.005.006-.01.011-.017.015-.008.005-.018.007-.027.006s-.02-.004-.029-.009l-.036-.021-.05-.027c-.022-.01-.044-.019-.067-.027-.03-.009-.06-.016-.091-.021-.039-.006-.079-.009-.119-.009-.076-.001-.152.011-.223.036-.066.023-.125.057-.175.101-.05.047-.089.102-.113.161-.028.068-.042.14-.041.213-.001.074.013.147.041.216.024.059.062.114.111.16.046.044.103.078.167.099.066.023.136.035.207.034.041 0 .082-.002.122-.007.066-.007.13-.027.186-.058.028-.016.055-.034.079-.053.01-.008.024-.013.038-.014zM27.34 23.338c.001.091-.017.181-.054.267-.033.077-.084.148-.151.207s-.148.105-.237.136c-.197.064-.414.064-.61 0-.089-.031-.169-.077-.236-.136-.067-.06-.119-.131-.153-.209-.072-.173-.072-.362 0-.534.034-.078.086-.149.153-.21.067-.057.148-.102.236-.131.196-.065.414-.065.61 0 .089.031.17.077.237.136.066.06.118.13.152.207.037.086.056.177.054.268zm-.21 0c.002-.073-.011-.145-.038-.214-.023-.059-.059-.114-.107-.16-.047-.044-.105-.079-.17-.101-.143-.047-.301-.047-.444 0-.065.023-.123.057-.17.101-.049.046-.086.101-.108.16-.051.14-.051.289 0 .429.023.059.06.114.108.16.047.044.105.078.17.1.143.046.301.046.444 0 .065-.022.122-.057.17-.1.048-.047.085-.101.107-.16.027-.069.04-.142.038-.214zM28.922 23.563l.021.048c.008-.017.015-.033.023-.048s.016-.032.026-.047l.513-.797c.01-.014.019-.022.029-.025.014-.004.028-.005.042-.004h.152v1.296h-.18v-.993c0-.014-.001-.03 0-.045l-.516.808c-.007.012-.017.022-.03.029s-.028.011-.044.011h-.029c-.016 0-.031-.004-.044-.011s-.024-.017-.03-.03l-.531-.813v1.04h-.174v-1.293h.152c.014-.001.029.001.042.004.012.005.022.014.028.025l.524.798c.01.015.019.03.026.046zM30.853 23.499v.485h-.201V22.69h.448c.084-.001.169.008.25.028.065.016.125.043.177.081.045.035.079.078.1.127.024.053.035.109.034.166.001.057-.012.113-.037.166-.024.05-.061.094-.108.13-.052.039-.112.068-.178.086-.078.021-.16.031-.242.03l-.243-.003zm0-.139h.243c.053.001.105-.006.156-.02.041-.012.08-.031.112-.056.03-.024.053-.053.068-.086.016-.035.025-.072.024-.109.002-.036-.005-.072-.02-.105s-.04-.064-.07-.088c-.077-.051-.173-.076-.27-.069h-.243v.533zM33.551 23.986h-.159c-.016 0-.032-.004-.044-.012-.011-.008-.02-.018-.026-.03l-.136-.313H32.5l-.142.313c-.005.011-.014.021-.025.029-.013.009-.029.013-.045.013h-.159l.602-1.296h.209l.61 1.296zm-.994-.481h.566l-.239-.527c-.018-.04-.033-.08-.045-.122l-.023.068c-.007.021-.015.039-.022.055l-.237.527zM34.418 22.696c.012.006.022.014.03.023l.878.977V22.69h.18v1.296h-.1c-.014 0-.028-.002-.041-.008s-.023-.014-.032-.024l-.877-.976c.001.015.001.03 0 .045s0 .027 0 .039v.924h-.18V22.69h.106c.012 0 .025.002.036.006zM36.985 23.47v.515h-.201v-.515l-.555-.78h.18c.016-.001.031.003.043.011.011.008.02.018.027.029l.347.503c.014.021.026.041.036.06s.018.037.025.055l.026-.056c.01-.02.021-.04.034-.059l.343-.507c.007-.01.016-.019.026-.027.012-.009.028-.014.043-.013h.182l-.556.784zM28.823 20.515c.087.009.176.017.265.024 1.354-.518 2.5-1.365 3.294-2.436s1.201-2.318 1.17-3.585l-1.493-1.275c.303 1.349.162 2.744-.41 4.029s-1.55 2.408-2.826 3.244z" style="fill:var(--color1, #8e8f99)"/>
      <path fill="#8e8f99" d="m28.29 20.456.04.007c1.364-.833 2.403-1.997 2.984-3.341s.677-2.805.276-4.196l-2.126-1.816c.86 1.493 1.206 3.164.998 4.818s-.961 3.225-2.172 4.528zM35.5 16.015c-.361 1.393-1.238 2.648-2.501 3.581-.369.274-.767.518-1.188.729 1.028-.258 1.974-.715 2.763-1.335s1.401-1.386 1.789-2.24l-.862-.736z" style="fill:var(--color1, #8e8f99)"/>
      <path fill="#8e8f99" d="m35.162 15.81-1.228-1.049c-.023 1.196-.421 2.364-1.152 3.384s-1.768 1.854-3.004 2.416h.006c.275 0 .551-.014.824-.042 1.155-.403 2.175-1.044 2.97-1.865s1.339-1.799 1.584-2.844zM28.468 10.344l-1.465-1.253c-1.309.432-2.435 1.192-3.231 2.18s-1.223 2.158-1.227 3.357c.005 1.325.527 2.611 1.483 3.654s2.293 1.784 3.797 2.105c1.343-1.398 2.13-3.126 2.245-4.932s-.446-3.597-1.604-5.111zM38.545 15.617c-.005-1.572-.739-3.079-2.04-4.19s-3.064-1.738-4.904-1.743c-.85-.001-1.693.133-2.486.395l8.967 7.661c.307-.677.464-1.397.464-2.123z" style="fill:var(--color1, #8e8f99)"/>
    </symbol>
    <symbol id="icon-Client-2" viewBox="0 0 61 32">
      <path fill="#8e8f99" d="M29.86 7.976c.084 0 .174.008.263.015.009.001.018.002.026.002.434.031.864.096 1.288.194V7.146c-.436-.109-.881-.18-1.329-.212-.17-.013-.351-.021-.537-.026h-.155c-.9.003-1.796.119-2.668.344-.993.248-1.946.635-2.831 1.151v10.326c.852-.463 1.758-.816 2.698-1.051.742-.189 1.5-.306 2.265-.348h.03c.128-.006.256-.01.387-.011v-1.058c-.993.013-1.981.144-2.944.391-.356.092-.7.192-1.023.303l-.368.125V9.029l.157-.076c1.2-.569 2.499-.9 3.824-.976.011-.001.022-.001.033 0 .146-.007.293-.011.438-.011h.166c.076.002.153.004.229.008h.05zm1.832 1.064c.231.018.47.026.712.026.946-.003 1.888-.124 2.805-.36.939-.236 1.846-.59 2.697-1.052v10.142c-.885.516-1.838.903-2.831 1.151-.872.224-1.768.339-2.668.343-.682.006-1.362-.075-2.024-.239V8.843c.156.036.317.069.481.097.269.045.552.079.828.099zm5.161.079-.368.124c-.338.114-.68.215-1.023.306-.999.257-2.026.388-3.057.392-.24 0-.461-.006-.674-.02l-.293-.019v8.283l.252.022c.234.02.475.03.718.03.812-.003 1.621-.108 2.407-.312.648-.162 1.278-.389 1.881-.676l.157-.076V9.119zM24.632 22.259c-.053-.055-.117-.098-.187-.126s-.146-.042-.222-.039c-.081-.001-.161.014-.236.044-.069.027-.131.069-.184.121s-.092.116-.119.185c-.029.073-.043.15-.042.228v1.38c-.003.097.015.194.054.283.033.071.08.134.138.185.055.046.12.08.19.098.067.019.136.028.206.029.077.001.153-.016.223-.048.069-.03.131-.074.184-.128.051-.054.092-.116.12-.185.029-.07.044-.144.044-.22v-.154h-.361v.123c.001.042-.006.084-.021.123-.012.029-.03.056-.052.078-.022.018-.048.032-.075.04-.024.008-.05.012-.075.013-.032.004-.065-.001-.095-.014s-.055-.034-.075-.06c-.034-.055-.051-.12-.048-.185v-1.286c-.002-.071.013-.142.044-.206.019-.029.045-.052.076-.067s.066-.02.1-.016c.031-.001.062.005.09.019s.052.034.071.059c.04.053.061.118.06.185v.119h.357v-.141c.001-.083-.014-.164-.044-.241-.027-.072-.068-.138-.12-.194zM26.774 22.243c-.115-.097-.26-.151-.41-.152-.073 0-.146.013-.215.039-.07.025-.135.063-.19.113-.06.054-.107.12-.14.193-.036.084-.054.175-.052.267v1.323c-.002.093.015.186.052.271.033.071.08.134.14.185.055.051.12.091.19.117.069.025.142.038.215.039s.146-.013.215-.039c.072-.026.138-.066.195-.117s.104-.115.136-.185c.037-.085.055-.178.052-.271v-1.323c.002-.092-.016-.183-.052-.267-.032-.073-.078-.139-.136-.193zm-.168 1.784c.003.035-.002.071-.014.104s-.032.063-.058.088c-.048.04-.108.062-.17.062s-.122-.022-.17-.062c-.025-.024-.045-.054-.058-.088s-.017-.069-.014-.104v-1.323c-.003-.035.002-.071.014-.104s.032-.063.058-.088c.048-.04.108-.062.17-.062s.122.022.17.062c.025.024.045.054.058.088s.017.069.014.104v1.323zM29.588 24.618v-2.505h-.347l-.455 1.326h-.006l-.459-1.326h-.343v2.505h.358v-1.524h.006l.35 1.077h.178l.353-1.077h.006v1.524h.358zM31.621 22.289c-.055-.062-.125-.109-.202-.137-.084-.027-.171-.04-.259-.039h-.532v2.505h.357v-.978h.184c.111.005.222-.018.322-.068.081-.045.149-.111.196-.191.041-.067.069-.141.082-.218.014-.094.02-.19.019-.285.003-.12-.008-.241-.035-.358-.024-.087-.069-.166-.132-.23zm-.184.763c-.002.045-.013.09-.033.13-.02.038-.053.069-.092.088-.053.024-.111.034-.168.031h-.163v-.852h.184c.055-.003.111.008.161.031.037.021.066.054.084.092.02.044.03.091.031.14v.166c0 .058.004.118 0 .172h-.004zM33.312 22.113h-.293l-.552 2.505h.357l.105-.538h.487l.105.538h.357l-.566-2.505zm-.329 1.626.176-.908h.006l.175.908h-.357zM35.618 23.622h-.006l-.539-1.509h-.343v2.505h.357v-1.506h.007l.545 1.506h.336v-2.505h-.357v1.509zM37.799 22.113l-.287.996h-.007l-.287-.996h-.378l.49 1.446v1.059h.357v-1.059l.49-1.446h-.378zM23.636 25.325h.172v.483h.117v-.483h.171v-.099h-.46v.099zM25.082 25.226l-.225.582h.124l.048-.132h.232l.05.132h.127l-.231-.582h-.124zm-.018.352.079-.215.079.215h-.158zM26.512 25.593h.134v.075c-.039.031-.088.049-.138.049-.023.001-.047-.003-.068-.013s-.04-.024-.055-.043c-.031-.044-.046-.098-.043-.152 0-.129.056-.194.167-.194.029-.003.059.005.083.022s.041.042.049.071l.115-.022c-.025-.114-.107-.171-.247-.171-.075-.002-.148.025-.203.075-.029.029-.052.064-.066.103s-.02.08-.017.121c-.003.08.023.158.075.218.028.029.063.052.101.067s.079.021.12.018c.091.003.179-.031.247-.092v-.229h-.252v.098zM27.972 25.226h-.118v.582h.407v-.099h-.29v-.483zM29.206 25.226h-.118v.582h.118v-.582zM30.413 25.615l-.238-.388h-.114v.582h.109v-.38l.234.38h.117v-.582h-.108v.388zM31.504 25.552h.29v-.099h-.29v-.128h.312v-.099h-.43v.582h.442v-.099h-.324v-.157zM34.15 25.456h-.229v-.229h-.117v.582h.117v-.254h.229v.254h.117v-.582h-.117v.229zM35.247 25.552h.291v-.099h-.291v-.128h.313v-.099h-.43v.582h.441v-.099h-.324v-.157zM36.736 25.552c.101-.016.153-.069.153-.162.003-.025-.001-.05-.011-.073s-.026-.042-.046-.057c-.053-.026-.111-.038-.17-.034h-.247v.582h.117v-.243h.023c.025-.002.05.003.073.013.017.011.031.025.041.043l.127.185h.14l-.071-.114c-.031-.056-.075-.104-.129-.14zm-.118-.081h-.086v-.146h.092c.04-.003.08.001.119.014.008.008.015.017.02.027s.007.022.006.033c0 .011-.004.022-.009.032s-.013.019-.022.025c-.039.012-.079.016-.119.014zM37.858 25.552h.289v-.099h-.289v-.128h.313v-.099h-.431v.582h.441v-.099h-.324v-.157z" style="fill:var(--color1, #8e8f99)"/>
    </symbol>
    <symbol id="icon-Client-1" viewBox="0 0 61 32">
      <path fill="#8e8f99" d="m25.455 8.364 2.548 2.428-4.73-.003v11.779h12.364v-4.504l2.545 2.425V8.364H25.455zm10.07 9.415L28.3 10.895h7.225v6.884zm-2.244 3.066h-8.052v-7.922h.569v7.386h7.483v.536zm-6.446 3.905.3-.617h.247l-.435.817v.476h-.225v-.476l-.435-.817h.248l.3.617zm1.106-.618h.053l.488 1.293h-.234l-.105-.303h-.5l-.104.303h-.233l.486-1.293h.149zm-.237.814h.378l-.189-.548-.189.548zm1.562-.214c-.045.032-.085.063-.12.095-.038.034-.068.072-.09.112s-.033.086-.033.139c0 .071.017.134.051.189s.083.098.146.13c.063.031.137.047.223.047.071 0 .138-.011.201-.034.048-.017.092-.042.133-.072l.075.088h.248l-.189-.224c.014-.018.026-.037.037-.057.027-.048.046-.1.058-.156s.019-.116.019-.178h-.185c0 .069-.011.132-.033.189-.007.018-.014.036-.023.052l-.256-.302.09-.065c.034-.025.064-.051.091-.079s.046-.059.061-.092c.015-.034.022-.071.022-.112 0-.052-.013-.099-.039-.142s-.062-.078-.11-.104c-.047-.027-.104-.04-.17-.04-.068 0-.128.013-.178.04s-.09.063-.118.112-.042.107-.042.174c0 .044.009.086.028.128s.044.083.077.127c.009.012.018.024.028.036zm.106.129.288.338c-.021.016-.043.029-.066.041-.046.022-.094.033-.143.033-.046 0-.084-.009-.116-.027s-.055-.043-.072-.074c-.016-.031-.024-.065-.024-.103 0-.015.002-.032.007-.052s.014-.041.029-.064c.015-.024.039-.048.07-.074l.027-.019zm.051-.236c-.005-.006-.01-.013-.015-.019-.024-.031-.042-.06-.056-.088s-.02-.056-.02-.083c0-.028.005-.053.015-.075s.026-.041.047-.055c.021-.014.046-.021.076-.021.043 0 .077.013.1.039s.036.054.036.085c0 .036-.008.066-.024.091s-.043.048-.08.073l-.079.053zm2.262.379c-.007.085-.031.16-.071.226s-.097.117-.17.155-.161.057-.265.057c-.08 0-.152-.014-.216-.043s-.119-.07-.164-.122c-.046-.053-.081-.117-.105-.193s-.036-.159-.036-.252v-.107c0-.093.012-.177.036-.252s.06-.139.107-.193c.046-.054.102-.095.166-.123s.138-.043.219-.043c.103 0 .19.019.261.057s.126.09.165.157c.04.067.064.144.073.23h-.222c-.006-.056-.019-.103-.039-.143s-.049-.07-.087-.091c-.038-.021-.089-.032-.151-.032-.051 0-.095.009-.133.028s-.07.047-.095.083c-.025.037-.045.082-.058.136s-.019.114-.019.183v.109c0 .065.006.124.017.178s.03.098.053.136c.024.038.055.067.092.088s.082.031.134.031c.063 0 .114-.01.154-.03s.07-.049.09-.088c.021-.039.034-.087.041-.143h.222zm1.233-.19v-.071c0-.098-.013-.185-.039-.262s-.062-.144-.109-.198c-.047-.055-.104-.097-.17-.125s-.139-.044-.218-.044c-.079 0-.152.015-.218.044s-.122.07-.17.125c-.047.054-.084.12-.11.198s-.039.164-.039.262v.071c0 .098.013.185.039.263s.064.144.112.198c.048.054.104.096.17.125s.138.043.218.043c.08 0 .153-.014.218-.043s.122-.071.169-.125c.047-.054.084-.12.109-.198s.038-.165.038-.263zm-.223-.073v.073c0 .072-.007.136-.021.192s-.034.103-.06.141c-.027.038-.059.067-.098.086s-.083.028-.132.028-.093-.009-.131-.028-.072-.048-.099-.086c-.027-.038-.048-.086-.062-.141s-.021-.12-.021-.192v-.073c0-.072.007-.136.021-.191s.035-.102.061-.139c.027-.038.06-.066.099-.085s.082-.029.131-.029.093.01.132.029c.039.019.072.047.099.085s.048.084.061.139c.014.055.021.119.021.191z" style="fill:var(--color1, #8e8f99)"/>
    </symbol>
  </defs>
</svg>
<svg xmlns="http://www.w3.org/2000/svg" aria-hidden="true" style="position:absolute;width:0;height:0;overflow:hidden">
  <defs>
    <symbol id="icon-facebook-2-2" viewBox="0 0 32 32">
      <path fill="#4d5ae5" d="M32 16c0 4.418-1.791 8.418-4.686 11.314S20.419 32 16 32c-4.418 0-8.418-1.791-11.314-4.686S0 20.419 0 16c0-4.418 1.791-8.418 4.686-11.314S11.581 0 16 0s8.418 1.791 11.314 4.686C30.209 7.581 32 11.581 32 16z" style="fill:var(--color1, #4d5ae5)"/>
      <path fill="#f4f4fd" d="M18.132 11.725h1.169V9.69c-.202-.028-.895-.09-1.702-.09-1.685 0-2.839 1.06-2.839 3.007V14.4h-1.859v2.275h1.859V22.4h2.279v-5.724h1.784l.283-2.275h-2.068v-1.567c0-.658.178-1.108 1.094-1.108z" style="fill:var(--color2, #f4f4fd)"/>
    </symbol>
    <symbol id="icon-in-5" viewBox="0 0 32 32">
      <path fill="#4d5ae5" d="M32 16c0 4.418-1.791 8.418-4.686 11.314S20.419 32 16 32c-4.418 0-8.418-1.791-11.314-4.686S0 20.419 0 16c0-4.418 1.791-8.418 4.686-11.314S11.581 0 16 0s8.418 1.791 11.314 4.686C30.209 7.581 32 11.581 32 16z" style="fill:var(--color1, #4d5ae5)"/>
      <path fill="#f4f4fd" d="M22.397 22.4v-.001h.003v-4.694c0-2.297-.494-4.066-3.179-4.066-1.291 0-2.157.708-2.51 1.38h-.037v-1.165h-2.546V22.4h2.651v-4.231c0-1.114.211-2.192 1.591-2.192 1.36 0 1.38 1.272 1.38 2.263v4.161h2.648zM9.811 13.854h2.654V22.4H9.811v-8.546zM11.137 9.6c-.849 0-1.537.688-1.537 1.537s.688 1.551 1.537 1.551 1.537-.703 1.537-1.551c0-.849-.689-1.537-1.537-1.537z" style="fill:var(--color2, #f4f4fd)"/>
    </symbol>
    <symbol id="icon-twitter-3-2" viewBox="0 0 32 32">
      <path fill="#4d5ae5" d="M32 16c0 4.418-1.791 8.418-4.686 11.314S20.419 32 16 32c-4.418 0-8.418-1.791-11.314-4.686S0 20.419 0 16c0-4.418 1.791-8.418 4.686-11.314S11.581 0 16 0s8.418 1.791 11.314 4.686C30.209 7.581 32 11.581 32 16z" style="fill:var(--color1, #4d5ae5)"/>
      <path fill="#f4f4fd" d="M22.4 12.031c-.476.209-.983.347-1.512.414.544-.325.959-.835 1.154-1.45-.507.302-1.067.516-1.664.635-.482-.513-1.168-.83-1.917-.83-1.453 0-2.622 1.179-2.622 2.625 0 .208.018.408.061.598-2.182-.106-4.112-1.152-5.409-2.745-.226.393-.359.842-.359 1.326 0 .909.468 1.714 1.166 2.181-.422-.008-.835-.13-1.186-.323v.029c0 1.275.91 2.334 2.102 2.578-.214.058-.446.086-.688.086-.168 0-.338-.01-.497-.045.34 1.039 1.305 1.803 2.452 1.828-.893.698-2.026 1.119-3.254 1.119-.215 0-.422-.01-.628-.036 1.162.75 2.54 1.178 4.026 1.178 4.829 0 7.469-4 7.469-7.467 0-.116-.004-.228-.01-.339.521-.37.958-.831 1.315-1.362z" style="fill:var(--color2, #f4f4fd)"/>
    </symbol>
    <symbol id="icon-instagram" viewBox="0 0 32 32">
      <path fill="#4d5ae5" d="M32 16c0 4.418-1.791 8.418-4.686 11.314S20.419 32 16 32c-4.418 0-8.418-1.791-11.314-4.686S0 20.419 0 16c0-4.418 1.791-8.418 4.686-11.314S11.581 0 16 0s8.418 1.791 11.314 4.686C30.209 7.581 32 11.581 32 16z" style="fill:var(--color1, #4d5ae5)"/>
      <path fill="#f4f4fd" d="M22.387 13.363c-.03-.68-.14-1.148-.298-1.553-.163-.43-.413-.815-.74-1.135-.32-.325-.708-.578-1.133-.738-.408-.158-.873-.268-1.553-.298-.685-.032-.903-.04-2.641-.04s-1.955.008-2.638.038c-.68.03-1.148.14-1.553.298-.43.162-.815.413-1.135.74-.325.32-.578.708-.738 1.133-.158.408-.268.873-.298 1.553-.032.685-.04.903-.04 2.641s.008 1.955.038 2.638c.03.68.14 1.148.298 1.553.162.43.415.815.74 1.135.32.325.708.578 1.133.738.408.158.873.268 1.553.298.683.03.9.038 2.638.038s1.955-.007 2.638-.038c.68-.03 1.148-.14 1.553-.298.86-.333 1.54-1.013 1.873-1.873.157-.408.268-.873.298-1.553.03-.683.038-.9.038-2.638s-.003-1.955-.033-2.638zm-1.152 5.226c-.028.625-.133.963-.22 1.188-.215.558-.658 1-1.215 1.215-.225.088-.565.193-1.188.22-.675.03-.878.037-2.585.037s-1.913-.007-2.586-.037c-.625-.027-.963-.132-1.188-.22-.278-.103-.53-.265-.735-.478-.213-.208-.375-.458-.478-.735-.088-.225-.193-.565-.22-1.188-.03-.675-.038-.878-.038-2.586s.007-1.913.038-2.586c.027-.625.132-.963.22-1.188.103-.278.265-.53.48-.735.207-.213.458-.375.735-.478.225-.087.565-.192 1.188-.22.675-.03.878-.038 2.586-.038 1.71 0 1.913.008 2.586.038.625.028.963.133 1.188.22.277.102.53.265.735.478.212.208.375.458.478.735.088.225.192.565.22 1.188.03.675.038.878.038 2.586s-.008 1.908-.038 2.583z" style="fill:var(--color2, #f4f4fd)"/>
      <path fill="#f4f4fd" d="M16.024 12.713c-1.815 0-3.288 1.473-3.288 3.288s1.473 3.288 3.288 3.288c1.815 0 3.288-1.473 3.288-3.288s-1.473-3.288-3.288-3.288zm0 5.421c-1.178 0-2.133-.955-2.133-2.133s.955-2.133 2.133-2.133 2.133.955 2.133 2.133-.955 2.133-2.133 2.133zm4.186-5.551c0 .424-.344.768-.768.768s-.768-.344-.768-.768c0-.424.344-.768.768-.768s.768.344.768.768z" style="fill:var(--color2, #f4f4fd)"/>
    </symbol>
  </defs>
</svg>
<svg xmlns="http://www.w3.org/2000/svg" aria-hidden="true" style="position:absolute;width:0;height:0;overflow:hidden">
  <defs>
    <symbol id="icon-astronaut-1" viewBox="0 0 32 32">
      <path fill="#4d5ae5" d="M31.974 4.524c-.063-.193-.229-.333-.43-.363l-1.91-.278-.855-1.731c-.179-.365-.777-.365-.956 0l-.855 1.731-1.91.278c-.201.029-.367.17-.431.363-.062.193-.011.405.135.547l1.383 1.348-.326 1.903c-.034.2.048.402.212.522.166.121.382.135.562.04l1.709-.899 1.709.899c.078.041.164.061.249.061.11 0 .221-.034.314-.102.164-.119.246-.322.212-.522l-.326-1.903 1.383-1.348c.145-.142.197-.354.135-.547zm-2.463 1.327c-.125.122-.183.299-.153.472l.191 1.114-1-.526c-.078-.041-.163-.061-.249-.061s-.17.02-.249.061l-1.001.526.191-1.114c.03-.173-.028-.349-.153-.472l-.81-.789 1.119-.163c.174-.025.324-.134.402-.292l.5-1.013.5 1.013c.078.157.228.267.402.292l1.119.163-.809.789zM26.133 20.522h-1.067v1.067h1.067v-1.067zM26.133 22.656h-1.067v1.067h1.067v-1.067zM27.2 21.589h-1.067v1.067H27.2v-1.067zM25.067 21.589H24v1.067h1.067v-1.067zM22.4 26.389h-1.067v1.067H22.4v-1.067zM22.4 28.522h-1.067v1.067H22.4v-1.067zM23.467 27.456H22.4v1.067h1.067v-1.067zM21.333 27.456h-1.067v1.067h1.067v-1.067zM16 24.256h-1.067v1.067H16v-1.067zM16 26.389h-1.067v1.067H16v-1.067zM17.067 25.322H16v1.067h1.067v-1.067zM14.933 25.322h-1.067v1.067h1.067v-1.067zM5.867 6.122H4.8v1.067h1.067V6.122zM5.867 8.255H4.8v1.067h1.067V8.255z" style="fill:var(--color1, #4d5ae5)"/>
      <path fill="#4d5ae5" d="M6.933 7.189H5.866v1.067h1.067V7.189zM4.8 7.189H3.733v1.067H4.8V7.189z" style="fill:var(--color1, #4d5ae5)"/>
      <path fill="#2e2f42" d="M24.715 14.159c-.287-.388-.709-.637-1.188-.705-.481-.068-.956.058-1.34.352l-1.252.96-1.898 1.417-1.358-.541c2.421-1.086 4.114-3.508 4.114-6.32 0-3.823-3.123-6.933-6.961-6.933s-6.961 3.11-6.961 6.933c0 1.386.414 2.674 1.12 3.758l-2.764-.024h-.005c-.009 0-.015.004-.023.005-.053.002-.105.013-.155.031-.013.005-.026.008-.038.013-.006.003-.013.003-.019.006l-3.233 1.596c-.001 0-.001 0-.001.001l-1.893.911c-.021.009-.042.021-.063.035-.755.502-1.012 1.489-.598 2.295.22.429.595.745 1.056.889.178.055.359.083.539.083.29 0 .577-.071.839-.211l1.388-.738 2.264-1.169 1.357-.008L2.2 22.211c-.001.001-.001.001-.002.001L.859 23.545c-.316.315-.49.732-.49 1.178s.174.863.49 1.179c.325.323.752.485 1.179.485s.854-.162 1.18-.485l1.314-1.309 1.741-1.3.901.897-1.762 1.754c0 .001-.001.001-.002.001l-1.339 1.333c-.316.315-.49.732-.49 1.178s.174.863.49 1.179c.325.323.753.485 1.18.485s.855-.162 1.18-.485l3.482-3.467c.001-.001.001-.001.001-.002l1.01-1-.004-.004c.006-.006.015-.009.022-.015l5.166-5.658 3.471.494c.025.004.05.005.075.005.065 0 .127-.015.187-.038.018-.006.033-.015.05-.023.019-.01.039-.015.058-.027l3.213-2.133c.012-.008.018-.021.029-.029.013-.01.029-.014.041-.026l1.271-1.191c.662-.62.753-1.635.212-2.362zM2.13 17.77c-.173.093-.37.111-.558.052-.187-.058-.338-.186-.427-.358-.161-.314-.068-.695.214-.902l1.314-.632.449 1.313-.992.527zm3.498-1.828-1.548.8-.439-1.283 2.027-1.001-.04 1.484zm15.099-6.62c0 .918-.219 1.785-.599 2.559l-4.181-1.899c-.044-.573-.341-1.075-.788-1.388l1.464-4.86c2.378.756 4.105 2.974 4.105 5.588zm-11.789 0c0-3.235 2.644-5.867 5.894-5.867.253 0 .5.021.745.052l-1.432 4.754c-.019-.001-.037-.006-.057-.006-1.033 0-1.873.837-1.873 1.867s.84 1.867 1.873 1.867c.694 0 1.294-.383 1.618-.945l3.862 1.755c-1.075 1.446-2.795 2.39-4.737 2.39-3.25 0-5.894-2.632-5.894-5.867zm5.956.8c0 .441-.362.8-.806.8s-.806-.359-.806-.8c0-.441.362-.8.806-.8s.806.359.806.8zM2.465 25.146c-.236.234-.619.234-.854.001-.114-.114-.176-.263-.176-.423s.062-.309.176-.421l.962-.958.851.848-.959.955zm3.214 3.734c-.236.234-.619.235-.855.001-.114-.114-.176-.263-.176-.423s.062-.309.176-.421l.963-.959.852.848-.96.955zm3.481-3.469c-.001 0-.001 0-.002.001l-1.765 1.76-.852-.848 1.763-1.755s.001-.001.002-.001c.04-.04.065-.088.09-.135.007-.014.02-.026.026-.04.017-.041.019-.085.026-.129.003-.025.014-.047.014-.073 0-.036-.013-.07-.02-.106-.006-.032-.006-.065-.019-.095-.02-.05-.055-.094-.091-.138-.01-.012-.014-.027-.025-.038h-.001c-.001 0-.001-.002-.001-.002l-1.607-1.6c-.017-.017-.039-.024-.058-.038-.028-.022-.055-.042-.087-.058-.03-.015-.061-.024-.093-.033-.034-.01-.067-.017-.103-.02-.033-.002-.063.001-.095.005-.036.004-.069.009-.104.02-.034.011-.063.027-.094.045-.02.011-.042.015-.061.029L4.23 23.486l-.901-.897 2.399-2.386 4.361 4.289-.928.919zm6.819-7.017c-.015-.002-.03.004-.045.003-.039-.002-.076.001-.115.007-.03.005-.059.011-.088.021-.034.012-.065.028-.097.047-.03.018-.057.037-.083.061-.013.011-.028.017-.04.029l-4.698 5.146-4.328-4.257 2.833-2.818c.209-.208.21-.546.002-.755-.105-.105-.243-.157-.381-.156v-.001l-2.219.013.028-1.607 3.104.027c1.265 1.294 3.029 2.101 4.981 2.101.437 0 .864-.045 1.279-.123.04.032.079.065.13.085l2.41.96.152.758.178.885-3.003-.427zm4.041.178-.313-1.558 1.446-1.08.947 1.257-2.08 1.381zm3.754-2.831-.838.785-.931-1.236.831-.637c.155-.119.351-.168.543-.143.193.027.364.128.48.284.217.292.18.699-.085.947z" style="fill:var(--color2, #2e2f42)"/>
      <path fill="#2e2f42" d="m13.602 18.544-2.143-2.133c-.207-.207-.545-.207-.753 0l-2.142 2.133c-.1.101-.157.236-.157.378s.056.278.157.378l2.142 2.133c.104.103.241.155.377.155s.273-.052.376-.155l2.143-2.133c.1-.1.157-.236.157-.378s-.057-.278-.157-.378zm-2.519 1.759-1.387-1.381 1.387-1.381 1.387 1.381-1.387 1.381zM17.164 5.071l-.258 1.036c.071.018 1.738.452 1.738 2.149h1.067c0-2.017-1.666-2.965-2.547-3.185zM19.711 9.322h-1.067v1.067h1.067V9.322z" style="fill:var(--color2, #2e2f42)"/>
    </symbol>
    <symbol id="icon-diagram-1" viewBox="0 0 32 32">
      <path fill="#4d5ae5" d="M14.925 14.965h1.066v4.798h-1.066v-4.797zM19.19 17.097h1.066v2.665H19.19v-2.665zM10.661 18.696h1.066v1.066h-1.066v-1.066zM7.463 18.163h1.066v1.599H7.463v-1.599z" style="fill:var(--color1, #4d5ae5)"/>
      <path fill="#2e2f42" d="M1.599 28.291h25.587c.883 0 1.599-.716 1.599-1.599V24.56c0-.883-.716-1.599-1.599-1.599h-.533V9.668L29.681 6.8c.703.346 1.553.136 2.013-.499s.396-1.508-.152-2.068-1.42-.644-2.065-.198c-.644.446-.873 1.292-.542 2.002L26.654 8.2V6.97c0-.883-.716-1.599-1.599-1.599H3.733c-.883 0-1.599.716-1.599 1.599v15.992h-.533c-.883 0-1.599.716-1.599 1.599v2.132c0 .883.716 1.599 1.599 1.599zM30.384 4.837c.294 0 .533.239.533.533s-.239.533-.533.533c-.294 0-.533-.239-.533-.533s.239-.533.533-.533zM3.198 6.969c0-.294.239-.533.533-.533h21.322c.294 0 .533.239.533.533v2.239l-1.066 1.013V8.035c0-.294-.239-.533-.533-.533H4.797c-.294 0-.533.239-.533.533v13.326c0 .294.239.533.533.533h19.19c.294 0 .533-.239.533-.533v-9.674l1.066-1.01v12.284H3.198V6.969zm4.798 6.93c-.721-.002-1.354.478-1.546 1.174s.105 1.433.725 1.801c.62.368 1.41.276 1.928-.226l1.853.93c.215.108.476.057.636-.123l3.939-4.431 3.872 2.901c.208.156.498.139.686-.039l3.365-3.188v8.131H5.33V8.569h18.124v2.66l-3.771 3.572-3.904-2.927c-.222-.166-.534-.135-.718.072l-3.993 4.493-1.493-.746c.011-.064.018-.129.02-.193 0-.883-.716-1.599-1.599-1.599zm.533 1.599c0 .294-.239.533-.533.533s-.533-.239-.533-.533c0-.294.239-.533.533-.533s.533.239.533.533zm3.198 8.529h5.331v.533c0 .294-.239.533-.533.533h-4.264c-.294 0-.533-.239-.533-.533v-.533zm-10.661.533c0-.294.239-.533.533-.533h9.062v.533c0 .883.716 1.599 1.599 1.599h4.264c.883 0 1.599-.716 1.599-1.599v-.533h9.062c.294 0 .533.239.533.533v2.132c0 .294-.239.533-.533.533H1.598c-.294 0-.533-.239-.533-.533V24.56z" style="fill:var(--color2, #2e2f42)"/>
    </symbol>
    <symbol id="icon-clock-1" viewBox="0 0 32 32">
      <path fill="#2e2f42" d="M31.297 15.301C31.295 6.849 24.442-.002 15.989 0S.686 6.855.688 15.308c.001 6.658 4.307 12.551 10.649 14.576.061.019.124.029.187.029.121 0 .239-.032.342-.094.135-.08.236-.207.283-.356l3.865-12.25c1.057-.005 1.909-.866 1.903-1.923s-.866-1.909-1.923-1.903c-.284.001-.565.067-.82.191l-5.106-5.107c-.253-.245-.657-.238-.902.016-.239.247-.239.639 0 .886l5.103 5.109c-.392.799-.168 1.764.536 2.309l-3.683 11.673C3.844 25.783.118 17.71 2.799 10.432S13.553-.572 20.831 2.109c7.278 2.681 11.004 10.754 8.323 18.032-1.31 3.556-4.001 6.431-7.462 7.973l-.398-1.874c-.073-.345-.411-.565-.756-.492-.109.023-.209.074-.293.148l-3.837 3.426c-.263.234-.287.637-.052.9.076.085.174.149.283.184l4.899 1.564c.335.108.694-.077.802-.412.034-.106.04-.219.017-.328l-.391-1.839c5.664-2.388 9.342-7.942 9.329-14.089zm-15.305-.637c.352 0 .638.286.638.638s-.286.638-.638.638c-.352 0-.638-.285-.638-.638s.285-.638.638-.638zm2.101 14.864 2.184-1.948.603 2.84-2.787-.892z" style="fill:var(--color2, #2e2f42)"/>
      <path fill="#4d5ae5" d="M15.354 3.185V4.46c0 .352.285.638.638.638s.638-.285.638-.638V3.185c0-.352-.286-.638-.638-.638s-.638.286-.638.638zM3.876 14.664c-.352 0-.638.286-.638.638s.285.638.638.638h1.275c.352 0 .638-.285.638-.638s-.285-.638-.638-.638H3.876zM28.108 15.939c.352 0 .638-.285.638-.638s-.285-.638-.638-.638h-1.275c-.352 0-.638.286-.638.638s.286.638.638.638h1.275z" style="fill:var(--color1, #4d5ae5)"/>
    </symbol>
    <symbol id="icon-antenna-1" viewBox="0 0 32 32">
      <path fill="#2e2f42" d="m30.773 22.098-8.443-8.505.937-4.615c.242.094.499.144.758.146h.006c1.192.014 2.17-.941 2.184-2.133s-.941-2.17-2.133-2.184c-1.192-.014-2.17.941-2.184 2.133-.003.255.039.509.125.749l-4.96.605L8.972.161C8.873.06 8.737.002 8.595.001c-.14.001-.274.056-.373.155L6.709 1.66c-.208.208-.208.546 0 .754l.814.826C4.37 9.038 5.394 16.218 10.042 20.903c.043.041.092.074.146.098-.034.18-.051.364-.052.547v6.187h-6.4c-1.472.002-2.665 1.195-2.667 2.667v1.067c0 .295.239.533.533.533h24.533c.295 0 .533-.239.533-.533v-1.067c-.002-1.472-1.195-2.665-2.667-2.667h-6.4v-2.742c1.003.21 2.024.317 3.049.32 2.458-.003 4.877-.615 7.04-1.783l.818.823c.099.101.235.159.377.16.14-.001.274-.056.373-.155l1.513-1.504c.208-.208.208-.546 0-.754zM23.28 6.233c.418-.415 1.093-.414 1.509.004s.414 1.093-.004 1.508c-.2.199-.47.31-.752.31h-.003c-.589-.003-1.064-.483-1.061-1.072.002-.282.115-.552.314-.751h-.002zm-1.256 3.505-.598 2.946-1.175-1.182 1.774-1.763zm-.605-.902-1.92 1.909-1.485-1.493 3.405-.415zM24.004 28.8c.884 0 1.6.716 1.6 1.6v.533H2.137V30.4c0-.884.716-1.6 1.6-1.6h20.267zm-7.467-2.133v1.067h-5.333v-1.067h5.333zM11.204 25.6v-4.053c0-1.294 1.196-2.347 2.667-2.347s2.667 1.053 2.667 2.347V25.6h-5.333zm6.4-1.696v-2.357c0-1.882-1.675-3.413-3.733-3.413-1.331-.02-2.576.657-3.281 1.786C6.532 15.646 5.619 9.275 8.311 4.033l18.602 18.708c-2.872 1.461-6.165 1.873-9.309 1.163zm11.289-.684L7.836 2.039l.755-.752 7.935 7.98c.004 0 .006.007.01.01l13.115 13.191-.757.752z" style="fill:var(--color2, #2e2f42)"/>
      <path fill="#4d5ae5" d="M13.876 20.267h-.005c-.884-.001-1.601.714-1.602 1.598s.714 1.601 1.598 1.602h.005c.884.001 1.601-.714 1.602-1.598s-.714-1.601-1.598-1.602zm.373 1.978c-.1.1-.236.156-.378.155-.295-.002-.532-.242-.531-.536.001-.141.057-.276.157-.375s.233-.154.373-.155c.295.002.532.242.531.536-.001.141-.057.276-.157.375h.005z" style="fill:var(--color1, #4d5ae5)"/>
    </symbol>
  </defs>
</svg>