<svg xmlns="http://www.w3.org/2000/svg" width="64" height="64" fill="none"><path fill="#4D5AE5" d="M63.9481 9.04812c-.1259-.38513-.4586-.66663-.8608-.72538l-3.8208-.55576-1.7099-3.46243c-.3583-.72963-1.5541-.72963-1.9125 0l-1.7099 3.46243-3.8209.55588c-.4021.05863-.7349.33926-.8619.72539-.1248.38613-.0214.81064.2699 1.09335l2.7659 2.6956-.6528 3.8059c-.0682.4.096.8043.4235 1.0433.3318.2411.7648.2709 1.1243.081l3.4177-1.7974 3.4177 1.7974c.1557.0821.3275.1226.4971.1226.2207 0 .4416-.0682.6272-.2037.3285-.2389.4928-.6433.4235-1.0433l-.6527-3.8059 2.7659-2.6956c.2898-.28374.3944-.70725.2695-1.09338ZM59.0223 11.702c-.2506.2443-.3659.5984-.3061.9441l.3818 2.2282-2.001-1.0517c-.1557-.0822-.3264-.1227-.4971-.1227-.1707 0-.3403.0405-.4972.1227l-2.0011 1.0517.3819-2.2282c.0597-.3457-.0555-.6987-.3062-.9441l-1.6202-1.5786 2.2379-.32539c.3477-.05013.6475-.26875.8032-.58351l1.0006-2.02665 1.0005 2.02665c.1557.31463.4555.53338.8032.58351l2.2379.32539-1.6181 1.5786ZM52.2669 41.0444h-2.1334v2.1334h2.1334v-2.1334ZM52.2669 45.3112h-2.1334v2.1334h2.1334v-2.1334ZM54.4003 43.1778h-2.1334v2.1334h2.1334v-2.1334Z"/><path fill="#4D5AE5" d="M50.1337 43.1778h-2.1334v2.1334h2.1334v-2.1334ZM44.8002 52.778h-2.1334v2.1333h2.1334V52.778ZM44.8002 57.0446h-2.1334v2.1335h2.1334v-2.1335ZM46.9336 54.9113h-2.1334v2.1335h2.1334v-2.1335Z"/><path fill="#4D5AE5" d="M42.6668 54.9113h-2.1334v2.1335h2.1334v-2.1335ZM32 48.5113h-2.1334v2.1334H32v-2.1334ZM32 52.778h-2.1334v2.1333H32V52.778ZM34.1334 50.6445H32v2.1334h2.1334v-2.1334ZM29.8666 50.6445h-2.1334v2.1334h2.1334v-2.1334ZM11.733 12.2439H9.59964v2.1334H11.733v-2.1334ZM11.733 16.5108H9.59964v2.1334H11.733v-2.1334Z"/><path fill="#4D5AE5" d="M13.8663 14.3774h-2.1334v2.1334h2.1334v-2.1334ZM9.59964 14.3774h-2.1334v2.1334h2.1334v-2.1334Z"/><path fill="#2E2F42" d="M49.4295 28.3189c-.5749-.7755-1.4186-1.2746-2.3765-1.4091-.9621-.1365-1.9115.1162-2.6796.704l-2.5035 1.9189-.0011.0011-3.7953 2.8342-2.7158-1.0816c4.8427-2.1728 8.2274-7.0166 8.2274-12.6402 0-7.646-6.2455-13.86687-13.9224-13.86687S15.7405 11.0002 15.7405 18.6462c0 2.7713.8288 5.3483 2.24 7.5168l-5.5276-.048h-.0096c-.0171 0-.0309.0085-.0469.0097-.1056.0042-.2091.0256-.3103.0618-.0257.0097-.0523.015-.0768.0267-.0127.0053-.0256.0063-.0384.0127l-6.46619 3.1926c-.00112 0-.00212 0-.00212.001l-3.78681 1.821c-.04163.0181-.08425.0426-.12588.0704C.0805013 32.3156-.433632 34.289.393131 35.9018c.440507.8576 1.190389 1.4892 2.112029 1.7782.35526.1108.71789.1653 1.0784.1653.57926 0 1.15314-.1418 1.6789-.4223L8.038 35.9467l4.5281-2.3382 2.7136-.016L4.39632 44.4237c-.001.0011-.00213.0011-.00325.0021l-2.67742 2.6667c-.63251.6294-.980263 1.4645-.980263 2.3553 0 .8896.347753 1.7269.980263 2.3574.64964.6464 1.50403.9706 2.35841.9706.85552 0 1.70878-.3242 2.36054-.9706l2.62829-2.6177 3.48171-2.5995 1.8016 1.7941-3.5233 3.5083c-.001.0012-.0021.0012-.0032.0022l-2.67745 2.6666c-.63251.6294-.98026 1.4645-.98026 2.3553 0 .8896.34775 1.7269.98026 2.3574.64964.6464 1.50515.9707 2.35955.9707s1.7099-.3243 2.3605-.9707l2.6784-2.6667 4.2849-4.2666c.0011-.0012.0011-.0022.0021-.0033l2.0193-2-.0075-.0075c.0127-.0128.0308-.0172.0437-.0309l10.3319-11.3164 6.942.9877c.0501.0075.1003.0107.1504.0107.1291 0 .2539-.0309.3744-.0768.0352-.0127.0661-.0299.0992-.0469.0384-.0192.0789-.0298.1153-.0543l6.4267-4.2667c.0235-.016.0363-.0417.0586-.0587.0257-.0202.0577-.0287.081-.0512l2.5429-2.3819c1.3232-1.2398 1.5056-3.2707.4239-4.7235ZM4.26082 35.5403c-.34663.1856-.74026.2229-1.11677.1035-.37338-.1163-.67626-.3713-.85339-.7158-.32213-.6272-.1355-1.391.42876-1.8037l2.62729-1.2641.63251 1.8486.26563.7765-1.98403 1.055Zm6.99428-3.6554-3.0966 1.6-.51088-1.4934-.36688-1.0731 4.05346-2.0012-.0791 2.9677ZM41.4539 18.644c0 1.8368-.4384 3.5692-1.1979 5.119l-8.3627-3.7984c-.0876-1.1467-.6827-2.1504-1.5766-2.7756l2.9281-9.72063c4.7553 1.51265 8.2091 5.94893 8.2091 11.17563Zm-23.5779 0c0-6.4694 5.2886-11.73351 11.789-11.73351.5056 0 1.0005.04262 1.4901.1045l-2.864 9.50741c-.0384-.0011-.0747-.0118-.1142-.0118-2.0651 0-3.7451 1.6747-3.7451 3.7335 0 2.0586 1.68 3.7334 3.7451 3.7334 1.3888 0 2.5888-.7669 3.2363-1.8892l7.7249 3.5095c-2.1494 2.8928-5.5894 4.7798-9.4733 4.7798-6.5002 0-11.7888-5.2641-11.7888-11.7336Zm11.9127 1.6001c0 .8821-.7232 1.6-1.6118 1.6-.8885 0-1.6117-.7179-1.6117-1.6 0-.8822.7232-1.6001 1.6117-1.6001.8886 0 1.6118.7179 1.6118 1.6001ZM4.9297 50.2925c-.4725.4683-1.23739.4673-1.70877.0011-.22726-.2272-.35201-.5268-.35201-.8458 0-.3179.12475-.6177.35201-.8427l1.92415-1.9169 1.7024 1.695-1.91778 1.9093Zm6.4277 7.4669c-.4725.4682-1.2384.4694-1.70987.0011-.22726-.2272-.35201-.5269-.35201-.8459 0-.3179.12475-.6176.35201-.8426l1.92537-1.9179.8054.8011.8982.8939-1.9191 1.9103Zm6.9634-6.9377c-.0011.001-.0021.001-.0033.0021l-3.5296 3.52-.8054-.8011-.8982-.8939 3.5265-3.5104v-.001c.0011-.0011.0021-.0011.0032-.0021.08-.08.1301-.176.1793-.2709.0138-.0278.0405-.0513.0522-.08.0331-.0821.0384-.1706.0513-.2572.0063-.0491.0277-.0948.0277-.1451 0-.0715-.0256-.1407-.0405-.2112-.0127-.064-.0127-.1292-.0374-.1909-.0405-.1003-.1098-.1888-.1823-.2753-.0203-.0235-.0278-.0533-.0502-.0757h-.0011c-.0011-.001-.0011-.0033-.0021-.0043l-3.2139-3.2c-.0342-.0341-.0779-.048-.1163-.0768-.0565-.0437-.1109-.0842-.1739-.1152-.0607-.0299-.1226-.048-.1866-.0651-.0682-.0193-.1344-.0342-.2059-.0395-.0651-.0043-.1259.0021-.1909.0096-.0715.0085-.1386.0181-.208.0405-.0672.0214-.1268.0544-.1887.0896-.0395.0224-.0843.0299-.1216.0576L8.45838 46.973l-1.80165-1.7942 4.79797-4.7723 8.7212 8.5773-1.8551 1.8379Zm13.6376-14.0334c-.0309-.0042-.0598.0075-.0906.0054-.0779-.0043-.1525.0011-.2304.0139-.0608.0106-.1184.0223-.176.0426-.0683.0235-.1302.0555-.1932.0939-.0597.0362-.1141.0746-.1663.1226-.0257.0224-.0565.0331-.08.0586l-9.3966 10.2914-8.6561-8.5132 5.6662-5.6364c.4171-.416.4193-1.0912.0033-1.5094-.2102-.2101-.4864-.3136-.7627-.3125v-.001l-4.4374.0267.0555-3.215 6.2081.0534c2.5302 2.5878 6.0587 4.2017 9.9628 4.2017.8746 0 1.728-.0906 2.5589-.2454.08.064.1589.1292.2592.1697l4.8194 1.92.305 1.5168.3562 1.7706-6.0053-.8544Zm8.0822.3563-.6261-3.1158 2.8928-2.1601.7574 1.0048 1.136 1.5083-4.1601 2.7628Zm7.5073-5.662-1.6758 1.5702-1.8624-2.4726 1.6629-1.2746c.3104-.2389.7019-.336 1.0859-.2859.3861.0544.7275.256.96.5685.4331.5835.3595 1.3974-.1706 1.8944Z"/><path fill="#2E2F42" d="m27.2042 37.0881-4.286-4.2667c-.4149-.4149-1.0891-.4149-1.5051 0l-4.2848 4.2667c-.2005.2016-.3137.4725-.3137.7562 0 .2838.112.5558.3137.7563l4.2848 4.2667c.208.2069.4811.3104.7531.3104.272 0 .545-.1035.752-.3104l4.286-4.2667c.2005-.2005.3146-.4725.3146-.7563 0-.2837-.1131-.5557-.3146-.7562Zm-5.038 3.5179-2.7734-2.7617 2.7734-2.7616 2.7744 2.7616-2.7744 2.7617ZM34.3285 10.1415l-.5152 2.0716c.1419.0352 3.4753.9035 3.4753 4.2977h2.1334c-.0001-4.0343-3.3313-5.9309-5.0935-6.3693ZM39.422 18.644h-2.1334v2.1335h2.1334V18.644Z"/></svg>