<svg xmlns="http://www.w3.org/2000/svg" width="168" height="88" fill="none"><rect width="167" height="87" x=".5" y=".5" stroke="#8E8F99" rx="3.5"/><path fill="#8E8F99" d="M56.0782 37.5179h-.0029c-2.3856 0-4.3196 1.7437-4.3196 3.8945v.0026c0 2.1508 1.934 3.8944 4.3196 3.8944h.0029c2.3856 0 4.3196-1.7436 4.3196-3.8944v-.0026c0-2.1508-1.934-3.8945-4.3196-3.8945ZM87.9614 36.273c-.0068-2.9875-1.3259-5.8509-3.6686-7.9636-2.3427-2.1127-5.5183-3.3026-8.8318-3.3094-3.3144.0054-6.4914 1.1948-8.8354 3.3076-2.3439 2.1129-3.6638 4.977-3.6706 7.9654v16.4742s25.0035-2.5108 25.0064-16.4717v-.0025ZM43 58.1543c.006 2.0787.9243 4.0708 2.5543 5.5409 1.63 1.4701 3.8392 2.2987 6.1447 2.3048 2.305-.0061 4.5137-.8343 6.1436-2.3039 1.6299-1.4696 2.5486-3.461 2.5554-5.5392V46.6938S43 48.4422 43 58.1543Zm8.699 2.0539c-.4506 0-.891-.1205-1.2656-.3462-.3746-.2256-.6666-.5464-.839-.9217-.1724-.3753-.2175-.7883-.1296-1.1867.0879-.3984.3048-.7643.6234-1.0516.3186-.2872.7245-.4828 1.1664-.5621.4419-.0792.8999-.0385 1.3161.1169.4163.1555.772.4187 1.0223.7565.2503.3377.3839.7348.3839 1.141.0012.2704-.0569.5383-.1709.7884-.114.25-.2816.4774-.4932.6689-.2117.1915-.4632.3435-.7401.4472-.2769.1037-.5739.1571-.8737.1571v-.0077ZM67.6089 56.515v4.2656H66.73V56.515h.8789Zm1.6992 1.8223v.6855h-1.9394v-.6855h1.9394Zm.2051-1.8223v.6885h-2.1445v-.6885h2.1445Zm4.0137 2.0332v.2022c0 .3242-.044.6152-.1319.873-.0879.2578-.2119.4776-.3721.6592-.1601.1797-.3515.3174-.5742.4131-.2207.0957-.4658.1435-.7353.1435-.2676 0-.5127-.0478-.7354-.1435-.2207-.0957-.4121-.2334-.5742-.4131-.1621-.1816-.2881-.4014-.3779-.6592-.0879-.2578-.1319-.5488-.1319-.873v-.2022c0-.3262.044-.6172.1319-.873.0879-.2578.2119-.4776.372-.6592.1622-.1816.3536-.3203.5743-.416.2226-.0957.4677-.1436.7353-.1436.2696 0 .5147.0479.7354.1436.2226.0957.414.2344.5742.416.1621.1816.2871.4014.375.6592.0898.2558.1348.5468.1348.873Zm-.8877.2022v-.208c0-.2266-.0205-.4258-.0616-.5977-.041-.1719-.1015-.3164-.1816-.4336-.0801-.1172-.1777-.2051-.293-.2637-.1152-.0605-.247-.0908-.3955-.0908-.1484 0-.2803.0303-.3955.0908-.1133.0586-.2099.1465-.29.2637-.0782.1172-.1377.2617-.1787.4336-.0411.1719-.0616.3711-.0616.5977v.208c0 .2246.0205.4238.0616.5976.041.1719.1015.3174.1816.4365.0801.1172.1777.2061.293.2666.1152.0606.247.0909.3955.0909.1484 0 .2803-.0303.3955-.0909.1152-.0605.2119-.1494.29-.2666.0782-.1191.1377-.2646.1787-.4365.0411-.1738.0616-.373.0616-.5976Zm3.7412.914c0-.0761-.0117-.1445-.0352-.205-.0215-.0625-.0625-.1192-.123-.17-.0606-.0527-.1455-.1045-.2549-.1552-.1094-.0508-.251-.1036-.4248-.1582-.1934-.0625-.377-.1329-.5508-.211-.1719-.0781-.3242-.1689-.457-.2724-.1309-.1055-.2344-.2276-.3106-.3663-.0742-.1386-.1113-.2998-.1113-.4834 0-.1777.0391-.3388.1172-.4834.0781-.1464.1875-.2714.3281-.375.1406-.1054.3066-.1865.4981-.2431.1933-.0567.4052-.085.6357-.085.3144 0 .5889.0567.8232.1699.2344.1133.4161.2686.545.4659.1308.1972.1962.4228.1962.6767h-.873c0-.125-.0264-.2344-.0791-.3281-.0508-.0957-.1289-.1709-.2344-.2256-.1035-.0547-.2344-.082-.3926-.082-.1523 0-.2793.0234-.3808.0703-.1016.0449-.1777.1064-.2285.1846-.0508.0761-.0762.1621-.0762.2578 0 .0722.0176.1377.0527.1963.0371.0586.0918.1132.1641.164.0723.0508.1611.0987.2666.1436.1055.0449.2275.0888.3662.1318.2324.0703.4365.1494.6123.2373.1777.0879.3262.1865.4453.2959.1192.1094.209.2334.2696.3721.0605.1387.0908.2959.0908.4717 0 .1855-.0362.3515-.1084.498-.0723.1465-.1768.2705-.3135.3721-.1367.1015-.2998.1787-.4893.2314-.1894.0528-.4013.0791-.6357.0791-.2109 0-.4189-.0273-.624-.082-.2051-.0566-.3916-.1416-.5596-.2549-.166-.1133-.2988-.2578-.3984-.4336-.0996-.1758-.1494-.3838-.1494-.624h.8818c0 .1328.0205.2451.0615.3369.041.0918.0986.166.1729.2227.0761.0566.166.0976.2695.123.1055.0254.2207.0381.3457.0381.1523 0 .2773-.0215.375-.0644.0996-.043.1729-.1026.2197-.1788.0489-.0761.0733-.1621.0733-.2578Zm3.3838-3.1494v4.2656h-.876V56.515h.876Zm1.3125 0v.6885h-3.4805v-.6885h3.4805Zm3.3632 3.5801v.6855h-2.2705v-.6855h2.2705Zm-1.9834-3.5801v4.2656h-.8789V56.515h.8789Zm1.6875 1.7373v.668h-1.9746v-.668h1.9746Zm.293-1.7373v.6885h-2.2676v-.6885h2.2676Zm.5156 0h1.5909c.3261 0 .6064.0488.8408.1465.2363.0977.4179.2422.5449.4336.127.1914.1904.4268.1904.706 0 .2286-.039.4249-.1172.5889-.0761.1621-.1845.2979-.3252.4072-.1386.1075-.3017.1934-.4892.2579l-.2783.1464h-1.3828l-.0059-.6855h1.0283c.1543 0 .2822-.0274.3838-.082.1016-.0547.1777-.1309.2285-.2286.0528-.0976.0791-.2109.0791-.3398 0-.1367-.0254-.2549-.0761-.3545-.0508-.0996-.128-.1758-.2315-.2285-.1035-.0527-.2334-.0791-.3896-.0791h-.712v3.5771h-.8789V56.515Zm2.3848 4.2656-.9727-1.9013.9288-.0059.9843 1.8662v.041h-.9404Zm4.6143-1.5205h-1.087v-.6855h1.087c.1679 0 .3046-.0274.4101-.082.1055-.0567.1826-.1348.2315-.2344.0488-.0996.0732-.2119.0732-.3369 0-.127-.0244-.2452-.0732-.3545-.0489-.1094-.126-.1973-.2315-.2637-.1055-.0664-.2422-.0996-.4101-.0996h-.7823v3.5771h-.8789V56.515h1.6612c.3339 0 .6201.0606.8584.1817.2402.1191.4238.2841.5507.4951.127.2109.1905.4521.1905.7236 0 .2754-.0635.5137-.1905.7148-.1269.2012-.3105.3565-.5507.4659-.2383.1093-.5245.164-.8584.164Zm5.0683.835v.6855h-2.2705v-.6855H97.02Zm-1.9834-3.5801v4.2656h-.8789V56.515h.8789Zm1.6875 1.7373v.668h-1.9746v-.668h1.9746Zm.293-1.7373v.6885h-2.2676v-.6885h2.2676Zm2.4814 0v4.2656h-.8759V56.515h.8759Zm1.3125 0v.6885h-3.4804v-.6885h3.4804Zm3.363 3.5801v.6855h-2.27v-.6855h2.27Zm-1.983-3.5801v4.2656h-.879V56.515h.879Zm1.687 1.7373v.668h-1.974v-.668h1.974Zm.293-1.7373v.6885h-2.267v-.6885h2.267Zm.516 0h1.591c.326 0 .606.0488.841.1465.236.0977.418.2422.545.4336.127.1914.19.4268.19.706 0 .2286-.039.4249-.117.5889-.076.1621-.185.2979-.325.4072-.139.1075-.302.1934-.49.2579l-.278.1464h-1.383l-.006-.6855h1.029c.154 0 .282-.0274.383-.082.102-.0547.178-.1309.229-.2286.053-.0976.079-.2109.079-.3398 0-.1367-.025-.2549-.076-.3545-.051-.0996-.128-.1758-.232-.2285-.103-.0527-.233-.0791-.389-.0791h-.712v3.5771h-.879V56.515Zm2.385 4.2656-.973-1.9013.929-.0059.984 1.8662v.041h-.94Zm3.679-1.1162c0-.0761-.011-.1445-.035-.205-.021-.0625-.062-.1192-.123-.17-.06-.0527-.145-.1045-.255-.1552-.109-.0508-.251-.1036-.424-.1582-.194-.0625-.377-.1329-.551-.211-.172-.0781-.324-.1689-.457-.2724-.131-.1055-.235-.2276-.311-.3663-.074-.1386-.111-.2998-.111-.4834 0-.1777.039-.3388.117-.4834.078-.1464.188-.2714.328-.375.141-.1054.307-.1865.498-.2431.194-.0567.406-.085.636-.085.314 0 .589.0567.823.1699.235.1133.416.2686.545.4659.131.1972.196.4228.196.6767h-.873c0-.125-.026-.2344-.079-.3281-.05-.0957-.129-.1709-.234-.2256-.104-.0547-.234-.082-.393-.082-.152 0-.279.0234-.381.0703-.101.0449-.177.1064-.228.1846-.051.0761-.076.1621-.076.2578 0 .0722.017.1377.053.1963.037.0586.091.1132.164.164.072.0508.161.0987.266.1436.106.0449.228.0888.366.1318.233.0703.437.1494.613.2373.177.0879.326.1865.445.2959s.209.2334.27.3721c.06.1387.09.2959.09.4717 0 .1855-.036.3515-.108.498-.072.1465-.177.2705-.314.3721-.136.1015-.299.1787-.489.2314-.189.0528-.401.0791-.636.0791-.21 0-.418-.0273-.624-.082-.205-.0566-.391-.1416-.559-.2549-.166-.1133-.299-.2578-.399-.4336-.099-.1758-.149-.3838-.149-.624h.882c0 .1328.02.2451.061.3369.041.0918.099.166.173.2227.076.0566.166.0976.27.123.105.0254.22.0381.345.0381.153 0 .278-.0215.375-.0644.1-.043.173-.1026.22-.1788.049-.0761.073-.1621.073-.2578Z"/></svg>