<svg xmlns="http://www.w3.org/2000/svg" width="168" height="88" fill="none"><rect width="167" height="87" x=".5" y=".5" stroke="#8E8F99" rx="3.5"/><path fill="#8E8F99" d="M58.7919 60.373c.2454.2735.3762.6161.3693.9677.0126.2293-.0324.4582-.1314.6698-.0991.2116-.2498.4004-.4409.5525-.4769.3242-1.0677.4827-1.6639.4463H54v-6.1324h2.8651c.5656-.0338 1.1267.1102 1.5873.4075.1851.1394.3316.3156.428.5147.0965.1991.1402.4157.1278.6326.0168.3383-.1012.6709-.3328.9377-.2223.2437-.5295.4126-.8719.4794.3881.0637.7384.2495.9884.5242Zm-3.4309-.9257h1.2246c.2783.0186.5547-.0538.7787-.2037.0919-.075.1635-.1681.2091-.272.0455-.1039.064-.2158.0538-.3271.0086-.111-.0102-.2223-.0551-.3259-.0448-.1036-.1147-.1969-.2045-.2733-.2306-.1542-.5156-.2276-.802-.2067H55.361v1.6087Zm2.1231 2.3517c.0983-.0768.1755-.1729.2257-.281.0503-.1081.0721-.2252.0638-.3421.0075-.1183-.0153-.2365-.0667-.3456-.0513-.1091-.1298-.2061-.2295-.2835-.2396-.1599-.5342-.2384-.8319-.2217H55.361v1.6866h1.3011c.2929.0152.5828-.0598.822-.2127ZM64.6487 63.0093l-1.594-2.3966h-.599v2.3966h-1.371v-6.1324h2.5956c.6543-.0411 1.3011.1455 1.8069.5213.3629.3328.5817.7714.6171 1.2366.0354.4653-.115.9266-.424 1.3009-.3203.3302-.7577.5504-1.2379.6231l1.6971 2.4505h-1.4908Zm-2.193-3.2324h1.1214c.7787 0 1.1681-.3096 1.1681-.9287.0079-.1265-.0134-.253-.0627-.3716-.0493-.1186-.1254-.2267-.2235-.3175-.2461-.1842-.563-.2736-.8819-.2486h-1.1347l.0133 1.8664ZM72.1426 61.7752h-2.7321l-.4825 1.2342h-1.4375l2.509-6.0635h1.5541l2.4991 6.0635h-1.4376l-.4725-1.2342Zm-.3661-.9287-.9983-2.5884-.9983 2.5884h1.9966ZM81.5234 63.0094h-1.361l-3.0515-4.1702v4.1702h-1.3577V56.877h1.3577l3.0515 4.1941V56.877h1.361v6.1324ZM89.2903 61.5415c-.2814.463-.7102.8396-1.2313 1.0814-.5925.2694-1.2499.4022-1.9134.3865H83.723V56.877h2.4226c.6623-.0156 1.319.114 1.9134.3775.521.2363.9502.6092 1.2313 1.0695.2801.4987.4261 1.0498.4261 1.6087s-.146 1.11-.4261 1.6088Zm-1.5574-.1468c.3884-.4074.602-.9266.602-1.4635s-.2136-1.056-.602-1.4634c-.4695-.369-1.0818-.5564-1.7038-.5213h-.9451v3.9694h.9451c.622.0351 1.2343-.1522 1.7038-.5212ZM72.9945 22.7667s17.5669 5.9707 17.1942 14.6106v14.6135s-17.5536-5.9736-17.1875-14.6135l-.0067-14.6106ZM105.839 48.5694c3.318-2.0555 7.155-3.3286 11.161-3.7028V40.292c-4.616 1.6015-8.531 4.5055-11.161 8.2774Z"/><path fill="#8E8F99" d="M103.846 49.9478c2.715-4.9225 7.423-8.721 13.154-10.6142V26.1521s-25.0177 8.5051-24.4886 20.8088v20.8059s1.1148-.3805 2.8685-1.0935c0-.665 0-1.3361.0799-2.0102.5177-5.712 3.5341-11.005 8.3862-14.7153Z"/><path fill="#8E8F99" d="M101.466 57.6769c.132-1.4429.425-2.8702.876-4.26-3.0215 3.2042-4.851 7.1802-5.2316 11.369-.0366.3955-.0566.7909-.0666 1.1984 1.4209-.6142 3.0752-1.3811 4.8122-2.2828-.444-1.9818-.575-4.0099-.39-6.0246ZM102.461 57.7519c-.166 1.8227-.062 3.6573.31 5.4553 6.835-3.6818 14.515-9.3709 14.219-16.2462v-.5992c-4.883.4919-9.452 2.4138-13.005 5.4703-.831 1.8942-1.345 3.8893-1.524 5.9198Z"/></svg>