<svg xmlns="http://www.w3.org/2000/svg" width="168" height="88" fill="none"><rect width="167" height="87" x=".5" y=".5" stroke="#8E8F99" rx="3.5"/><path fill="#8E8F99" d="M68.8098 65.2233c.0161.0003.032.0035.0467.0091.0147.0057.0279.0138.0389.0239l.2208.2076c-.1714.168-.3832.3023-.6211.3939-.2784.0999-.5786.1481-.8805.1415-.2837.005-.5656-.04-.8281-.1321-.2368-.0846-.4495-.2117-.6239-.3727-.1778-.167-.3149-.3626-.403-.5755-.0964-.2373-.1441-.4871-.1407-.7383-.004-.2528.0475-.5041.1518-.7407.0964-.2142.2419-.4099.4278-.5755.1885-.1625.414-.2901.6625-.3751.2719-.09.5614-.1349.853-.1321.2708-.0056.5402.0353.7922.1203.2186.0811.4193.1936.5935.3326l-.185.2217c-.0128.0156-.0286.0292-.0469.0401-.0218.0128-.0482.0187-.0745.0166-.0287-.0017-.0563-.0099-.0801-.0236l-.0994-.059-.138-.0755c-.0596-.028-.1214-.0524-.1849-.0731-.0819-.025-.1659-.0448-.2512-.059-.1083-.017-.2184-.0249-.3285-.0236-.21-.0022-.4183.0315-.6128.0991-.1814.0626-.3451.1575-.4803.2783-.1376.1285-.2437.2793-.3119.4435-.0778.1878-.1161.3858-.1132.585-.0033.2022.035.4034.1132.5944.0673.1627.1714.3126.3064.4411.1264.1198.2831.2133.4582.2736.1802.0638.3736.0959.5686.0944.1127.0014.2253-.0049.3368-.0189.182-.019.3566-.073.5107-.1581.0772-.0435.1502-.0924.218-.1462.0284-.0231.0657-.0366.1049-.0377ZM75.1861 64.1803c.0035.2502-.0471.4989-.149.7335-.09.2128-.2317.4069-.4158.5696-.1842.1626-.4065.29-.6525.3739-.5404.1761-1.1378.1761-1.6782 0-.2444-.0852-.4653-.2129-.6487-.3751-.184-.1655-.3268-.3613-.4196-.5755-.1988-.475-.1988-.9943 0-1.4694.0942-.2142.2367-.4106.4196-.5778.1849-.1571.4057-.2799.6487-.3609.5397-.1793 1.1385-.1793 1.6782 0 .2452.0851.4671.2128.6515.375.1817.164.3234.3572.4168.5684.1022.2362.1528.4865.149.7383Zm-.5796 0c.0043-.2002-.0312-.3996-.1049-.5897-.0619-.1628-.1624-.3129-.2954-.441-.1294-.1212-.2888-.2163-.4665-.2783-.3927-.129-.8274-.129-1.22 0-.1778.062-.3371.1571-.4665.2783-.1348.1273-.2364.2776-.2981.441-.1405.384-.1405.7954 0 1.1793.0623.1632.1638.3134.2981.4411.1296.1205.2889.2147.4665.276.3933.1256.8266.1256 1.22 0 .1776-.0613.3369-.1555.4665-.276.1324-.1284.2329-.2785.2954-.4411.0741-.19.1095-.3894.1049-.5896ZM79.5365 64.7987l.0579.1321c.0221-.0472.0414-.0896.0635-.1321.0211-.0443.045-.0876.0718-.1297l1.4105-2.1909c.0276-.0377.0525-.0613.0801-.0684.0375-.0097.0767-.0137.1159-.0118h.4168v3.5635h-.4941v-2.731a.9288372.9288372 0 0 1 0-.1226l-1.4188 2.2215c-.018.0333-.0468.0615-.0831.0811-.0362.0197-.0783.03-.1212.0298h-.08c-.043.0005-.0852-.0097-.1215-.0294s-.0651-.048-.0828-.0815l-1.4602-2.2356v2.8606h-.4775v-3.5564h.4168c.0391-.0019.0784.0021.1159.0118.0342.0145.0615.0387.0773.0684l1.4409 2.1933c.0283.0405.0523.0831.0718.1273ZM84.8447 64.6217v1.3347h-.5521v-3.5586h1.2311c.2324-.0038.4641.0224.6873.0778.1787.0433.3444.1189.4859.2217.1226.0964.2171.2159.276.349.0652.1452.097.2997.0938.4552.0025.1561-.0323.3109-.1021.4551-.0663.1366-.1683.2584-.2981.3561-.1416.1071-.3081.1875-.4886.2359-.2149.0586-.4397.0865-.6652.0825l-.668-.0094Zm0-.3821h.668c.1451.0016.2895-.0167.4278-.0542.1141-.0328.2193-.085.3092-.1533.0829-.0653.1471-.1459.1877-.2358.0452-.0951.0677-.1969.0662-.2995.0065-.099-.0124-.1979-.0553-.2899-.0429-.0921-.1088-.175-.1931-.2431-.2109-.1407-.4758-.2088-.7425-.191h-.668v1.4668ZM92.2645 65.9613h-.4362c-.0437.0014-.0867-.0103-.1214-.0331-.0313-.0222-.0559-.0505-.0718-.0825l-.3754-.8609h-1.8853l-.3892.8609c-.0143.0315-.0381.0591-.069.0802-.0351.0241-.0792.0367-.1242.0354h-.4362l1.6562-3.5638h.5742l1.6783 3.5638Zm-2.7328-1.3232h1.5569l-.657-1.4505c-.0502-.1091-.0917-.221-.1242-.3349l-.0635.1863c-.0193.0566-.0414.1085-.0607.1509l-.6515 1.4482ZM94.6495 62.414c.033.0155.0614.0373.0828.0637l2.4153 2.6864v-2.7666h.4941v3.5638h-.276c-.0392.001-.0781-.0063-.1132-.0212-.0341-.017-.0641-.0395-.0883-.0661l-2.4125-2.684c.0026.0409.0026.0818 0 .1226v2.6487h-.4941v-3.5638h.2926c.0341-.0008.068.0049.0993.0165ZM101.71 64.5438v1.4151h-.552v-1.4151l-1.5262-2.1463h.4942c.043-.0021.085.0087.119.0307.03.0229.055.05.074.0802l.955 1.3844c.039.059.072.1132.1.1651.027.0519.049.1014.069.151l.071-.1533c.027-.0561.059-.1105.094-.1628l.942-1.3939c.019-.0278.043-.0532.071-.0754.033-.0245.076-.0371.119-.0354h.5l-1.53 2.1557ZM79.2632 56.417c.2401.0259.483.0472.7287.066 3.7246-1.4235 6.8754-3.7535 9.0587-6.6986 2.1832-2.9451 3.3021-6.3747 3.2166-9.8601l-4.1046-3.5071c.8346 3.7109.4442 7.547-1.1275 11.0791-1.5717 3.5321-4.2627 6.6208-7.7719 8.9207Z"/><path fill="#8E8F99" d="m77.7975 56.2539.1104.0189c3.7499-2.2917 6.6089-5.4919 8.2072-9.1867 1.5984-3.6949 1.8625-7.7144.7584-11.5389l-5.8464-4.9951c2.3647 4.1059 3.3165 8.7009 2.7448 13.2508-.5717 4.5499-2.6435 8.8676-5.9744 12.451ZM97.6251 44.0424c-.9933 3.8296-3.4056 7.2834-6.8788 9.8487-1.0144.7533-2.1085 1.4244-3.2683 2.0046 2.8282-.7102 5.4277-1.9659 7.5981-3.6702 2.1704-1.7042 3.8537-3.8116 4.9201-6.1596l-2.3711-2.0235Z"/><path fill="#8E8F99" d="m96.6948 43.4784-3.3759-2.8844c-.0645 3.2885-1.1587 6.5023-3.1689 9.3072-2.0101 2.805-4.8629 5.0988-8.2617 6.643h.0166c.7574-.0003 1.5141-.0389 2.2662-.1156 3.1764-1.1077 5.9824-2.87 8.1677-5.1297 2.1852-2.2597 3.6818-4.9464 4.356-7.8205ZM78.2861 28.4457 74.2587 25c-3.6003 1.1887-6.6967 3.2784-8.884 5.9955-2.1872 2.7172-3.3635 5.9353-3.3747 9.233.0135 3.644 1.449 7.18 4.0793 10.0484 2.6303 2.8685 6.3052 4.9055 10.4429 5.7887 3.6938-3.8451 5.8564-8.5963 6.1736-13.5633.3172-4.967-1.2275-9.891-4.4097-14.0566ZM106 42.9478c-.015-4.3233-2.031-8.466-5.609-11.5231-3.5783-3.0571-8.427-4.78-13.4871-4.7925-2.3382-.0021-4.6566.3666-6.8374 1.0872l24.6585 21.0679c.844-1.8623 1.276-3.8423 1.275-5.8395Z"/></svg>