<svg xmlns="http://www.w3.org/2000/svg" width="40" height="40" fill="none"><path fill="#4D5AE5" d="M40 20c0 5.5228-2.2386 10.5228-5.8579 14.1421C30.5228 37.7614 25.5228 40 20 40c-5.5228 0-10.52285-2.2386-14.14214-5.8579C2.23858 30.5228 0 25.5228 0 20 0 14.4772 2.23858 9.47715 5.85786 5.85786 9.47715 2.23858 14.4772 0 20 0s10.5228 2.23858 14.1421 5.85786C37.7614 9.47715 40 14.4772 40 20Z"/><g fill="#F4F4FD" clip-path="url(#a)"><path d="M27.9961 27.9999v-.0007h.004v-5.868c0-2.8707-.618-5.082-3.974-5.082-1.6133 0-2.696.8853-3.138 1.7247h-.0467v-1.4567h-3.182v10.682h3.3134v-5.2893c0-1.3927.264-2.7394 1.9886-2.7394 1.6994 0 1.7247 1.5894 1.7247 2.8287v5.2007h3.31ZM12.264 17.3179h3.3174v10.682H12.264v-10.682ZM13.9214 11.9999c-1.0607 0-1.9213.8606-1.9213 1.9213s.8606 1.9393 1.9213 1.9393 1.9213-.8786 1.9213-1.9393c-.0006-1.0607-.8613-1.9213-1.9213-1.9213Z"/></g><defs><clipPath id="a"><path fill="#fff" d="M12.0001 11.9999h16v16h-16z"/></clipPath></defs></svg>