<svg xmlns="http://www.w3.org/2000/svg" width="40" height="40" fill="none"><path fill="#4D5AE5" d="M40 20c0 5.5228-2.2386 10.5228-5.8579 14.1421C30.5228 37.7614 25.5228 40 20 40c-5.5228 0-10.52285-2.2386-14.14214-5.8579C2.23858 30.5228 0 25.5228 0 20 0 14.4772 2.23858 9.47715 5.85786 5.85786 9.47715 2.23858 14.4772 0 20 0s10.5228 2.23858 14.1421 5.85786C37.7614 9.47715 40 14.4772 40 20Z"/><g fill="#F4F4FD" clip-path="url(#a)"><path d="M27.9843 16.7039c-.0375-.8501-.175-1.4346-.3719-1.941-.2032-.5376-.5157-1.0189-.9252-1.419-.4001-.4063-.8846-.7221-1.4159-.9221-.5094-.1969-1.0908-.3344-1.941-.3719-.8565-.0406-1.1284-.05-3.3007-.05s-2.4442.0094-3.2975.0469c-.8501.0374-1.4346.175-1.9409.3719-.5377.2031-1.019.5157-1.4191.9252-.4063.4001-.722.8846-.9221 1.4159-.1969.5095-.3344 1.0908-.3719 1.9409-.0406.8565-.05 1.1284-.05 3.3007s.0094 2.4442.0469 3.2976c.0374.8501.175 1.4346.372 1.941.2031.5376.5188 1.0189.9251 1.419.4001.4063.8846.7221 1.4159.922.5095.197 1.0908.3345 1.9411.3719.8532.0377 1.1252.0469 3.2975.0469s2.4442-.0092 3.2975-.0469c.8501-.0374 1.4346-.1749 1.9409-.3719 1.0753-.4157 1.9254-1.2658 2.3412-2.341.1968-.5095.3344-1.0909.3719-1.941.0375-.8534.0469-1.1253.0469-3.2976s-.0032-2.4442-.0407-3.2975Zm-1.4408 6.5325c-.0345.7815-.1657 1.2034-.2751 1.4847-.2689.697-.8221 1.2503-1.5191 1.5191-.2813.1094-.7063.2407-1.4847.275-.8439.0376-1.097.0468-3.2318.0468s-2.3911-.0092-3.2319-.0468c-.7814-.0343-1.2034-.1656-1.4847-.275-.3469-.1282-.6626-.3314-.9189-.597-.2657-.2595-.4688-.572-.597-.9189-.1094-.2813-.2407-.7064-.275-1.4847-.0376-.8439-.0469-1.0971-.0469-3.2319 0-2.1348.0093-2.3911.0469-3.2319.0343-.7814.1656-1.2033.275-1.4846.1282-.347.3313-.6626.6002-.919.2593-.2657.5719-.4689.9189-.597.2813-.1093.7064-.2406 1.4846-.275.8439-.0375 1.0972-.0469 3.2319-.0469 2.1379 0 2.391.0094 3.2319.0469.7814.0344 1.2034.1657 1.4847.275.3468.1281.6626.3313.9189.597.2656.2594.4688.572.597.919.1094.2813.2406.7063.2751 1.4846.0375.844.0469 1.0971.0469 3.2319 0 2.1348-.0094 2.3848-.0469 3.2287Z"/><path d="M20.0297 15.8912c-2.2691 0-4.1102 1.841-4.1102 4.1102 0 2.2693 1.8411 4.1102 4.1102 4.1102 2.2692 0 4.1101-1.8409 4.1101-4.1102 0-2.2692-1.8409-4.1102-4.1101-4.1102Zm0 6.7764c-1.4721 0-2.6662-1.194-2.6662-2.6662s1.1941-2.6662 2.6662-2.6662c1.4722 0 2.6661 1.194 2.6661 2.6662s-1.1939 2.6662-2.6661 2.6662ZM25.262 15.7287c0 .5299-.4296.9595-.9596.9595-.5299 0-.9596-.4296-.9596-.9595 0-.53.4297-.9595.9596-.9595.53 0 .9596.4295.9596.9595Z"/></g><defs><clipPath id="a"><path fill="#fff" d="M12 11.9999h16v16H12z"/></clipPath></defs></svg>