<svg xmlns="http://www.w3.org/2000/svg" width="40" height="40" fill="none"><path fill="#4D5AE5" d="M40 20c0 5.5228-2.2386 10.5228-5.8579 14.1421C30.5228 37.7614 25.5228 40 20 40c-5.5228 0-10.52285-2.2386-14.14214-5.8579C2.23858 30.5228 0 25.5228 0 20 0 14.4772 2.23858 9.47715 5.85786 5.85786 9.47715 2.23858 14.4772 0 20 0s10.5228 2.23858 14.1421 5.85786C37.7614 9.47715 40 14.4772 40 20Z"/><g clip-path="url(#a)"><path fill="#F4F4FD" d="M22.6647 14.6565h1.4607v-2.544c-.252-.0346-1.1187-.1126-2.128-.1126-2.106 0-3.5487 1.3246-3.5487 3.7593v2.2407h-2.324v2.844h2.324v7.156h2.8493v-7.1554h2.23l.354-2.844h-2.5846v-1.9593c.0006-.822.222-1.3847 1.3673-1.3847Z"/></g><defs><clipPath id="a"><path fill="#fff" d="M12 11.9999h16v16H12z"/></clipPath></defs></svg>