<svg xmlns="http://www.w3.org/2000/svg" width="64" height="64" fill="none"><path fill="#2E2F42" d="M61.5463 44.1952 44.6599 27.1851l1.8741-9.231c.4836.1888.9978.2875 1.5168.2912h.0128c2.3846.0282 4.3404-1.882 4.3687-4.2665.0283-2.3845-1.882-4.3404-4.2665-4.36867-2.3846-.02813-4.3404 1.88197-4.3687 4.26657-.006.5102.0784 1.0174.2495 1.4982l-9.92 1.2107L17.9452.32c-.1985-.202533-.4695-.3177333-.7531-.32-.28.0014667-.5481.112933-.7466.3104l-3.0251 3.008c-.4164.41653-.4164 1.09173 0 1.50827l1.6277 1.6512C8.74201 18.0737 10.7903 32.4335 20.0871 41.8037c.0853.0816.1842.1476.2922.1952-.0672.361-.1022.7272-.1045 1.0944v12.3734H7.47481c-2.944.0034-5.32986 2.3893-5.33333 5.3333v2.1333c0 .5891.4776 1.0667 1.06667 1.0667H52.2748c.5891 0 1.0667-.4776 1.0667-1.0667V60.8c-.0035-2.944-2.3893-5.3299-5.3333-5.3333h-12.8v-5.4838c2.0052.4206 4.0482.635 6.097.64 4.9163-.0053 9.7543-1.2309 14.08-3.5669l1.6363 1.6459c.1985.2025.4695.3177.7531.32.28-.0015.5481-.113.7466-.3104l3.0251-3.008c.4164-.4166.4164-1.0918 0-1.5083ZM46.5596 12.4661c.8354-.8309 2.1862-.8272 3.017.0082.8309.8353.8272 2.1861-.0082 3.0169-.3998.3977-.9409.6209-1.5049.6208h-.0064c-1.1781-.0061-2.1284-.9661-2.1223-2.1444.003-.564.2291-1.1037.629-1.5015h-.0042Zm-2.5109 7.0091-1.1968 5.8912-2.351-2.3648 3.5478-3.5264Zm-1.2117-1.8037-3.84 3.8176-2.9707-2.9867 6.8107-.8309ZM48.0082 57.6c1.7673 0 3.2 1.4327 3.2 3.2v1.0667H4.27481V60.8c0-1.7673 1.43267-3.2 3.2-3.2H48.0082Zm-14.9334-4.2667v2.1334H22.4081v-2.1334h10.6667ZM22.4081 51.2v-8.1067c0-2.5877 2.3926-4.6933 5.3334-4.6933 2.9408 0 5.3333 2.1056 5.3333 4.6933V51.2H22.4081Zm12.8001-3.392v-4.7147c0-3.7642-3.3494-6.8266-7.4667-6.8266-2.6622-.0408-5.1515 1.3142-6.5622 3.5722-8.1154-8.5476-9.9429-21.2904-4.5572-31.77423L53.8258 45.4816c-5.7448 2.9224-12.3303 3.7452-18.6176 2.3264Zm22.5781-1.3675-1.5029-1.5114L17.1815 5.59147l-1.5094-1.51254 1.5094-1.504L33.0513 18.5344c.0075 0 .0118.0139.0193.0192l26.2293 26.3829-1.5136 1.504Z"/><path fill="#4D5AE5" d="M27.7511 40.5333h-.0096c-1.7673-.0027-3.2021 1.4279-3.2048 3.1952-.0027 1.7673 1.4279 3.2021 3.1952 3.2048h.0096c1.7673.0027 3.2021-1.4279 3.2048-3.1952.0026-1.7673-1.4279-3.2021-3.1952-3.2048Zm.7467 3.9563c-.2008.1997-.473.3114-.7563.3104-.5891-.0031-1.0641-.4831-1.0611-1.0722.0015-.282.1146-.5518.3144-.7508.1986-.1974.4667-.3089.7467-.3104.5891.0031 1.0641.4831 1.0611 1.0722-.0015.282-.1146.5518-.3144.7508h.0096Z"/></svg>