<svg xmlns="http://www.w3.org/2000/svg" width="168" height="88" fill="none"><rect width="167" height="87" x=".5" y=".5" stroke="#8E8F99" rx="3.5"/><path fill="#8E8F99" d="M85.5294 43.4433c-.4441-.5909-.6565-1.2891-.6061-1.992v-2.8881c0-.8853.2009-1.5581.6026-2.0184.4018-.4603 1.0918-.6894 2.0701-.6875.9193 0 1.5719.1959 1.9577.5876.4209.4998.6257 1.1111.5788 1.7276v.6787h-1.6444v-.6875c.0058-.2251-.0101-.4501-.0477-.6728-.0236-.1523-.1065-.2932-.2349-.3996-.1689-.1147-.3816-.1703-.5959-.1557-.2252-.0145-.4487.0441-.6264.1645-.1432.1179-.2387.2724-.2724.4407-.0472.2357-.0688.4747-.0647.7139v3.5051c-.0259.3381.0466.6765.2111.9842.0818.1042.1954.1867.3282.2386.1328.0518.2796.071.4242.0552.2107.015.4198-.042.5823-.1586.1339-.1148.2201-.2645.2451-.426.0384-.2326.0555-.4674.0511-.7022v-.711h1.6444v.6493c.0462.6426-.1536 1.2806-.5685 1.8157-.378.4289-1.0215.6434-1.968.6434-.9465 0-1.6615-.2291-2.0666-.7051ZM92.3764 43.4727c-.4154-.4495-.6231-1.1047-.6231-1.9714v-3.038c0-.8579.2077-1.5072.6231-1.9479.4153-.4407 1.1099-.66 2.0836-.6581.9669 0 1.6581.2194 2.0734.6581.4154.4407.6265 1.09.6265 1.9479v3.038c0 .8579-.2111 1.516-.6333 1.9684-.4221.4525-1.1099.6787-2.0666.6787-.9567 0-1.6649-.2291-2.0836-.6757Zm2.8497-.7287c.1487-.2815.2165-.59.1974-.899v-3.7195c.0191-.3031-.0475-.6056-.194-.8814-.0835-.1064-.1998-.1903-.3359-.2422-.1361-.052-.2863-.0699-.4336-.0516-.1477-.0178-.2983.0003-.4348.0522s-.2535.1355-.338.2416c-.1498.275-.2176.578-.1975.8814v3.7371c-.0207.3092.0471.6179.1975.8991.0958.0947.2141.1707.3468.2228.1327.052.2768.0789.4226.0789.1458 0 .2899-.0269.4226-.0789.1327-.0521.251-.1281.3469-.2228v-.0177ZM99.1378 35.946h1.7702l1.332 5.6052 1.361-5.6052h1.723l.174 8.0905h-1.274l-.136-5.6228-1.314 5.6228h-1.021l-1.362-5.6434-.126 5.6434h-1.2872l.16-8.0905ZM107.483 35.946h2.758c1.589 0 2.383.7658 2.383 2.2973 0 1.4669-.836 2.1994-2.509 2.1974h-.94v3.5958h-1.702l.01-8.0905Zm2.356 3.4577c.168.0184.339.0051.501-.039.161-.0441.31-.118.435-.2166.195-.2732.282-.5941.245-.9136.009-.2468-.018-.4936-.081-.7344-.025-.0805-.067-.1559-.126-.222-.058-.0661-.131-.1214-.215-.1629-.236-.0978-.497-.1422-.759-.1292h-.661v2.4177h.661ZM115.079 35.946h1.828l1.876 8.0905h-1.587l-.371-1.8655h-1.631l-.381 1.8655h-1.61l1.876-8.0905Zm1.562 5.2879-.636-3.396-.637 3.396h1.273ZM120.298 35.946h1.192l2.281 4.6152V35.946h1.413v8.0905h-1.134l-2.295-4.8179v4.8179h-1.46l.003-8.0905ZM128.493 40.9516l-1.896-4.9943h1.597l1.157 3.2081 1.086-3.2081H132l-1.873 4.9943v3.0847h-1.634v-3.0847ZM88.1579 47.5736v.4231h-1.3891v3.2875h-.5822v-3.2875h-1.3959v-.4231h3.3672ZM92.5124 51.2844h-.4495c-.0456.0025-.0906-.0101-.1259-.0352-.034-.0215-.0601-.0511-.0749-.0852l-.4018-.8813h-1.9271l-.4017.8813c-.0115.0369-.0324.071-.0613.0999-.0356.0246-.0804.0371-.126.0352h-.4494l1.7023-3.7104h.5925l1.7228 3.6957Zm-2.8192-1.3778h1.6071l-.681-1.51c-.0502-.1142-.0923-.2309-.126-.3496-.0238.0705-.0442.1381-.0646.1969l-.0613.1557-.6742 1.507ZM95.4472 50.9202c.1066.0048.2134.0048.3201 0 .092-.0082.1831-.023.2723-.0441.0834-.0177.1654-.0402.2452-.0676.0749-.0264.1498-.0587.2281-.0911v-.8344h-.681c-.0168.0008-.0336-.0014-.0495-.0064-.0158-.0051-.0302-.0129-.0424-.023-.0112-.0083-.02-.0187-.0259-.0304-.0059-.0117-.0087-.0244-.0081-.0372v-.285h1.321v1.4221c-.1078.0666-.2217.1255-.3405.1763-.1214.0517-.2478.094-.3779.1263-.1392.0354-.2816.0609-.4256.0764-.165.0158-.331.0237-.4971.0235-.2936.0022-.5849-.0447-.858-.1381-.2548-.0884-.4864-.2203-.6809-.3878-.1895-.1692-.3388-.3688-.4392-.5876-.1073-.246-.1604-.5071-.1566-.7698-.0036-.2645.0483-.5272.1532-.7757.0979-.2199.2475-.42.4392-.5876.1943-.167.426-.2979.6809-.3849.2916-.0947.601-.1415.9125-.1381.1585-.0002.3168.0106.4733.0323.1383.0194.2741.0509.4051.094.1191.0386.2332.0878.3405.1469.1043.058.2034.1228.2962.1939l-.1634.2292c-.0128.0209-.0319.0385-.0553.0509-.0233.0124-.0501.0192-.0775.0196-.0377-.001-.0743-.0112-.1056-.0294-.051-.0235-.1055-.0528-.1668-.0881-.0724-.0392-.1487-.0726-.2281-.0999-.1015-.0351-.2063-.0627-.3132-.0823-.1426-.0226-.2874-.0335-.4324-.0323-.2247-.0021-.4477.0328-.6571.1028-.1895.0656-.3603.1659-.5005.2939-.1411.1334-.2489.2904-.3167.4613-.1521.4018-.1521.835 0 1.2369.0745.1745.1905.3337.3405.4672.1396.1273.3091.2275.4971.2938.2165.0641.4459.0892.6741.0735ZM100.874 50.8611h1.859v.4231h-2.427v-3.7106h.582l-.014 3.2875ZM104.667 51.2842h-.582v-3.7106h.582v3.7106ZM106.833 47.5913c.034.017.064.04.088.0676l2.489 2.797c-.004-.044-.004-.0882 0-.1322V47.559h.507v3.7255h-.293c-.043.003-.087-.0041-.126-.0206-.035-.0185-.066-.0424-.092-.0705l-2.485-2.7941V51.2845h-.487v-3.7108h.303c.033 0 .066.006.096.0176ZM114.204 47.5736v.4084h-2.064v1.2251h1.672v.3937h-1.672v1.2663h2.064v.4083h-2.663v-3.7018h2.663ZM53.1952 24.6587l25.8518 6.334v22.1956l-25.8518-6.3311V24.6587Zm-1.6581-1.892v25.1687l29.1646 7.1478V29.9175l-29.1646-7.1508Z"/><path fill="#8E8F99" d="M67.168 66.7667 38 59.6129v-25.166l29.168 7.1508v25.169Z"/><path fill="#8E8F99" d="m52.0205 24.3737 25.5147 6.2546-10.8507 9.3658-25.5181-6.2576 10.8541-9.3628Zm-.4835-1.607L38 34.4475l29.168 7.1506 13.5336-11.6807-29.1646-7.1507ZM68.8091 65.3509l11.8925-10.2646-11.8925-2.9172v13.1818Z"/></svg>