<svg xmlns="http://www.w3.org/2000/svg" width="168" height="88" fill="none"><rect width="167" height="87" x=".5" y=".5" stroke="#8E8F99" rx="3.5"/><path fill="#8E8F99" fill-rule="evenodd" d="m70 23 7.0078 6.6764L64 29.6687v32.3922h34V49.6758l7 6.669V23H70Zm27.6924 25.8922L77.8226 29.962h19.8698v18.9302Zm-6.1693 8.4305h-22.143V35.5373h1.5652v20.3102h20.5778v1.4752ZM73.7959 68.0611l-.8252-1.6968h-.6811l1.1962 2.2461v1.3086h.6177v-1.3086l1.1963-2.2461h-.6787l-.8252 1.6968Zm3.042-1.6968h.1465l1.3427 3.5547h-.6445l-.2876-.8325h-1.3761l-.287.8325h-.6421l1.3379-3.5547h.4102Zm-.6515 2.2364h1.0407l-.5209-1.508-.5198 1.508Zm4.2957-.589c-.0268-.0341-.0526-.0672-.0773-.0995-.0912-.1205-.162-.2368-.2124-.3491-.0505-.114-.0757-.2312-.0757-.3516 0-.1855.0382-.345.1147-.4785s.1848-.236.3248-.3076c.1399-.0733.3035-.1099.4907-.1099.1806 0 .3361.0366.4663.1099.1318.0716.2327.1668.3027.2856.0716.1188.1074.249.1074.3906 0 .1123-.0203.2149-.061.3077-.0407.0927-.0968.1774-.1685.2539-.0716.0765-.1546.1489-.249.2173l-.2469.1797.7039.8307c.0232-.0456.0442-.0936.063-.1437.0603-.1563.0904-.3296.0904-.5201h.5078c0 .1726-.0171.3361-.0513.4908-.0325.1546-.0854.2978-.1587.4296-.0297.0547-.0633.107-.1008.1569l.5207.6146h-.6811l-.2066-.243c-.1118.0849-.2334.1512-.3647.1991-.1725.0618-.3564.0928-.5517.0928-.2361 0-.4403-.0432-.6128-.1294-.1726-.0863-.306-.2051-.4004-.3565-.0928-.1514-.1392-.3247-.1392-.52 0-.1449.0301-.2718.0903-.3809.0603-.1106.1425-.2132.2466-.3076.0962-.0873.2058-.1745.3288-.2618Zm.2917.3572-.0736.0535c-.0863.07-.1506.1376-.1929.2027-.0407.0635-.0675.1221-.0805.1758-.0131.0537-.0196.1009-.0196.1416 0 .1041.022.1985.0659.2832.0456.0846.1115.1521.1978.2026.0879.0488.1945.0732.3198.0732.1351 0 .2661-.0301.3931-.0903.0636-.031.124-.0683.181-.112l-.791-.9303Zm.1405-.6493.218-.1468c.1026-.0683.1758-.1351.2198-.2002.0439-.0667.0659-.1497.0659-.249 0-.0846-.0326-.1627-.0977-.2344-.0651-.0716-.1571-.1074-.2759-.1074-.083 0-.153.0195-.2099.0586-.057.0374-.1001.0879-.1294.1514-.0277.0618-.0415.131-.0415.2075 0 .0732.0187.1489.0561.227.0375.0765.0887.1571.1538.2417.0133.017.0269.0341.0408.0516Zm6.219 1.0422h-.6104c-.0179.1546-.0553.2856-.1123.3931-.0553.1058-.1375.1863-.2465.2417-.1075.0553-.2482.083-.4224.083-.1432 0-.2661-.0285-.3687-.0855-.1025-.0569-.1871-.1375-.2539-.2417-.0651-.1041-.1139-.2287-.1464-.3735-.031-.1465-.0464-.3093-.0464-.4883v-.3003c0-.1888.0171-.3564.0512-.5029.0358-.1481.0887-.2726.1587-.3736.07-.1009.1571-.1774.2613-.2294.1041-.0521.2262-.0782.3662-.0782.1709 0 .3092.0293.415.0879.1058.057.1856.14.2393.249.0553.1091.0911.2401.1074.3931h.6103c-.0244-.2376-.0911-.4484-.2002-.6323-.1074-.1839-.2587-.328-.4541-.4321-.1953-.1042-.4345-.1563-.7177-.1563-.223 0-.424.0391-.6031.1172-.1774.0781-.3295.1912-.4565.3394-.127.1464-.2246.323-.293.5297-.0667.2067-.1001.4379-.1001.6934v.2954c0 .2555.0326.4867.0977.6934.0667.2067.1628.3833.2881.5298.1253.1448.2759.2571.4516.3369.1758.0781.3736.1172.5933.1172.2865 0 .5298-.0521.73-.1563.2002-.1042.3556-.2466.4663-.4272.1107-.1823.1758-.3899.1953-.6226Zm3.3911-.5225v-.1953c0-.2685-.0358-.5086-.1074-.7202-.07-.2132-.1701-.3947-.3003-.5444-.1302-.1514-.2856-.2661-.4663-.3443-.1807-.0797-.3809-.1196-.6006-.1196-.2181 0-.4175.0399-.5981.1196-.1791.0782-.3345.1929-.4663.3443-.1303.1497-.2312.3312-.3028.5444-.0716.2116-.1074.4517-.1074.7202v.1953c0 .2686.0358.5095.1074.7227.0733.2132.1758.3947.3076.5444.1319.1498.2873.2645.4663.3443.1807.0781.3801.1172.5982.1172.2197 0 .4199-.0391.6006-.1172.1806-.0798.3353-.1945.4638-.3443.1302-.1497.2303-.3312.3003-.5444s.105-.4541.105-.7227Zm-.6128-.2002v.2002c0 .1986-.0195.3744-.0586.5274-.0374.153-.0927.2824-.166.3882-.0732.1041-.1627.1831-.2685.2368-.1058.0521-.2271.0781-.3638.0781-.1351 0-.2555-.026-.3613-.0781-.1058-.0537-.197-.1327-.2735-.2368-.0748-.1058-.1318-.2352-.1709-.3882-.039-.153-.0586-.3288-.0586-.5274v-.2002c0-.1985.0196-.3735.0586-.5249.0391-.153.0952-.2807.1685-.3833.0748-.1041.1652-.1823.271-.2343.1058-.0537.2262-.0806.3613-.0806s.2564.0269.3638.0806c.1074.052.1977.1302.271.2343.0748.1026.131.2303.1684.3833.0391.1514.0586.3264.0586.5249Z" clip-rule="evenodd"/></svg>